<svg id="Calque_1" data-name="Calque 1" xmlns="http://www.w3.org/2000/svg" width="84.84" height="54.18" viewBox="0 0 84.84 54.18"><title>diagram_wirnet-ibts</title><path d="M0,5.6v43c0,3.08,14.64,5.6,32.52,5.6h19.8c17.89,0,32.52-2.52,32.52-5.6V5.6C84.84,2.52,70.21,0,52.32,0H32.52C14.64,0,0,2.52,0,5.6m81.65,4-.24,34.77c0,1-77.52,1.71-77.52,1.71L4.17,9.71c0-1,77.56-1.23,77.56-.25Z" style="fill:#262626;fill-rule:evenodd"/><path d="M40.8,38.14a9.91,9.91,0,0,1-8.87-5.55,10.34,10.34,0,0,1,4.32-13.73,9.67,9.67,0,0,1,4.52-1.12,9.91,9.91,0,0,1,8.87,5.55,10.38,10.38,0,0,1,.61,7.78A10.06,10.06,0,0,1,45.32,37a9.61,9.61,0,0,1-4.52,1.12M38,27.33H43.3v8.19a.67.67,0,1,0,1.34,0V30.75h1.55a.68.68,0,0,0,0-1.37H44.64V26.64A.68.68,0,0,0,44,26H38.7V24.42h4.13a.43.43,0,0,0,.14,0,.67.67,0,0,0,.58-.67V22.1a.67.67,0,1,0-1.34,0v1H38a.67.67,0,0,0-.66.69v2.9a.68.68,0,0,0,.66.69m-4.51,2.31h6.69v2.79H36.79a.69.69,0,0,0,0,1.37h3.43v2.63a.67.67,0,1,0,1.34,0V29a.67.67,0,0,0-.67-.68H34.22v-2a.67.67,0,1,0-1.33,0V29a.67.67,0,0,0,.64.68m14.36.45A1.1,1.1,0,1,0,49,29a1.11,1.11,0,0,0-1.1,1.13m-14.59,3A1.08,1.08,0,1,0,34.38,32a1.1,1.1,0,0,0-1.08,1.11m-.93-9.25a1.09,1.09,0,1,0,1.09-1.12,1.11,1.11,0,0,0-1.09,1.12m9.43-4.15a1.09,1.09,0,1,0,1.09-1.12,1.1,1.1,0,0,0-1.09,1.12" style="fill:#fcbe0e;fill-rule:evenodd"/></svg>