<svg id="Calque_1" data-name="Calque 1" xmlns="http://www.w3.org/2000/svg" width="90.95" height="73.07" viewBox="0 0 90.95 73.07"><title>diagram_cis</title><path d="M75.39,0H8.8A8.94,8.94,0,0,0,0,9.06V45A8.94,8.94,0,0,0,8.8,54.1H75.39A8.94,8.94,0,0,0,84.19,45v-36A8.94,8.94,0,0,0,75.39,0M40.71,51.21c-2.62,0-2.62-4.18,0-4.18s2.62,4.18,0,4.18M78.8,44.88H5.39V5.35H78.8Z" style="fill:#262626;fill-rule:evenodd"/><rect x="25.82" y="55.36" width="31.01" height="11.26" style="fill:#262626"/><rect x="16.27" y="69.55" width="50.1" height="3.52" style="fill:#262626"/><path d="M72.62,36h0l-1.76.1a.92.92,0,0,1-.86-.48L63.81,24.55a2.09,2.09,0,0,0-1.86-1.06,2.46,2.46,0,0,0-1.25.35,2.51,2.51,0,0,0-1.14,1.45A2.17,2.17,0,0,0,59.72,27L70.4,46.12a1,1,0,0,1,.09.73,1,1,0,0,1-.44.59l-1,.59a.92.92,0,0,1-1.17-.2L64.66,44a3.47,3.47,0,0,0,0,3.57c1.81,3.56,6.67,5.87,12.38,5.87l1,0h0a.93.93,0,0,1,.81.48l1,1.75,8-4.75-.93-1.67a1,1,0,0,1-.07-.81.91.91,0,0,1,.1-.2l2-4.91-4.83-8.65L72.62,36" style="fill:#1f325d;fill-rule:evenodd"/><path d="M90.82,42.76l-5.36-9.62a.93.93,0,0,0-.92-.48c-9,1-11.41,1.32-12.12,1.43v0l-1.11.06L65.43,23.59a3.93,3.93,0,0,0-3.49-2,4.31,4.31,0,0,0-2.19.61,4.44,4.44,0,0,0-2,2.56,4.12,4.12,0,0,0,.34,3.21L66.9,43.73,65.36,41.9a.92.92,0,0,0-1.3-.11A5.46,5.46,0,0,0,63,48.47c2.22,4.37,7.85,7,14.55,6.9l1.16,2.08a.93.93,0,0,0,.81.48A.93.93,0,0,0,80,57.8l9.64-5.71A1,1,0,0,0,90,51.5a1,1,0,0,0-.09-.73L88.78,48.7l2.09-5.08a1,1,0,0,0-.05-.86m-3.87,5.46a.88.88,0,0,0-.1.2,1,1,0,0,0,.07.81l.93,1.66-8,4.75-1-1.75a.94.94,0,0,0-.81-.48h0l-1,0c-5.71,0-10.57-2.3-12.38-5.87a3.48,3.48,0,0,1,0-3.57l3.23,3.83a.92.92,0,0,0,1.17.2l1-.59a1,1,0,0,0,.44-.59,1,1,0,0,0-.09-.73L59.72,27a2.17,2.17,0,0,1-.17-1.68,2.51,2.51,0,0,1,1.14-1.45,2.47,2.47,0,0,1,1.25-.35,2.09,2.09,0,0,1,1.86,1.06L70,35.61a.92.92,0,0,0,.86.48L72.6,36h0l11.52-1.34L89,43.31Z" style="fill:#fff;fill-rule:evenodd"/><path d="M47.73,40.9a1.23,1.23,0,0,1-1.22-1.25V23.37a1.21,1.21,0,1,1,2.43,0V39.64a1.23,1.23,0,0,1-1.21,1.25" style="fill:#fcbe0e;fill-rule:evenodd"/><path d="M44.62,40.9a1.23,1.23,0,0,1-1.22-1.25V25a1.21,1.21,0,1,1,2.43,0v14.6a1.23,1.23,0,0,1-1.21,1.25" style="fill:#fcbe0e;fill-rule:evenodd"/><path d="M41.29,40.9a1.23,1.23,0,0,1-1.22-1.25V26.46a1.21,1.21,0,1,1,2.43,0V39.64a1.23,1.23,0,0,1-1.21,1.25" style="fill:#fcbe0e;fill-rule:evenodd"/><path d="M38.18,40.9A1.23,1.23,0,0,1,37,39.64V27.77a1.22,1.22,0,1,1,2.43,0V39.64a1.23,1.23,0,0,1-1.21,1.25" style="fill:#fcbe0e;fill-rule:evenodd"/><path d="M35.08,40.9a1.23,1.23,0,0,1-1.22-1.25V29.09a1.22,1.22,0,1,1,2.43,0V39.64a1.23,1.23,0,0,1-1.22,1.25" style="fill:#fcbe0e;fill-rule:evenodd"/><path d="M31.7,40.9a1.24,1.24,0,0,1-1.21-1.25v-8.9a1.22,1.22,0,1,1,2.43,0v8.9A1.23,1.23,0,0,1,31.7,40.9" style="fill:#fcbe0e;fill-rule:evenodd"/><path d="M28.6,40.9a1.24,1.24,0,0,1-1.22-1.25v-7.3a1.22,1.22,0,1,1,2.43,0v7.3A1.23,1.23,0,0,1,28.6,40.9" style="fill:#fcbe0e;fill-rule:evenodd"/><path d="M25.5,40.9a1.23,1.23,0,0,1-1.22-1.25V33.49a1.22,1.22,0,1,1,2.43,0v6.15A1.23,1.23,0,0,1,25.5,40.9" style="fill:#fcbe0e;fill-rule:evenodd"/><path d="M22.16,40.9a1.23,1.23,0,0,1-1.21-1.25v-5a1.21,1.21,0,1,1,2.43,0v5a1.23,1.23,0,0,1-1.22,1.25" style="fill:#fcbe0e;fill-rule:evenodd"/><path d="M9.76,10.53a2.2,2.2,0,0,0,2,2.26,1.91,1.91,0,0,0,1.73-1l-.36-.19a1.49,1.49,0,0,1-1.35.82,1.77,1.77,0,0,1-1.64-1.85,1.7,1.7,0,0,1,1.62-1.82,1.37,1.37,0,0,1,1.29.78l.34-.21a1.71,1.71,0,0,0-1.61-1,2.11,2.11,0,0,0-2.07,2.19" style="fill:#1f325d"/><path d="M15.16,12.82A1.54,1.54,0,0,0,16.52,12v.44a.32.32,0,0,0,.34.3l.17,0v-.37c-.1,0-.15-.06-.15-.17V9.54h-.42v2a1.26,1.26,0,0,1-1.16.88c-.5,0-.74-.36-.74-1.09V9.54h-.42v1.89c0,.91.35,1.39,1,1.39" style="fill:#1f325d"/><path d="M18.9,12.82c.76,0,1.25-.38,1.25-1s-.42-.71-1.25-.91c-.57-.14-.8-.21-.8-.55s.35-.6.79-.6a1.35,1.35,0,0,1,1,.37l.2-.25a1.6,1.6,0,0,0-1.16-.44c-.66,0-1.2.33-1.2,1s.33.64,1.08.82,1,.25,1,.61-.34.61-.85.61a1.74,1.74,0,0,1-1.15-.44l-.19.28a2,2,0,0,0,1.35.48" style="fill:#1f325d"/><path d="M22.25,12.26a1,1,0,0,1-.49.14.36.36,0,0,1-.39-.35V9.87h.74V9.54h-.74V8.45H21V9.54h-.44v.33H21v2.3a.61.61,0,0,0,.68.62,1.73,1.73,0,0,0,.73-.19Z" style="fill:#1f325d"/><path d="M23,11.16a1.17,1.17,0,1,1,2.32,0,1.24,1.24,0,0,1-1.17,1.3A1.22,1.22,0,0,1,23,11.16m1.16,1.65a1.67,1.67,0,1,0-1.59-1.66,1.61,1.61,0,0,0,1.59,1.66" style="fill:#1f325d"/><path d="M31.21,10.87c0-.84-.26-1.39-1-1.39a1.38,1.38,0,0,0-1.24.83.91.91,0,0,0-.95-.83,1.38,1.38,0,0,0-1.22.78V9.54h-.38v3.22h.42v-2a1.16,1.16,0,0,1,1.05-.92c.47,0,.7.33.7,1.09v1.8H29v-2a1.16,1.16,0,0,1,1.05-.93c.47,0,.71.35.71,1.09v1.8h.42Z" style="fill:#1f325d"/><path d="M32.3,11a1.19,1.19,0,0,1,1.17-1.17A1.2,1.2,0,0,1,34.66,11Zm1.18,1.84a1.46,1.46,0,0,0,1.36-.8l-.36-.1a1.07,1.07,0,0,1-1,.58,1.23,1.23,0,0,1-1.18-1.2H35a1,1,0,0,0,0-.17,1.6,1.6,0,1,0-3.19,0,1.63,1.63,0,0,0,1.61,1.68" style="fill:#1f325d"/><path d="M37.29,9.53H37.1a1.26,1.26,0,0,0-1,.79V9.54h-.39v3.22h.42v-2a1.23,1.23,0,0,1,1.18-.85Z" style="fill:#1f325d"/><path d="M39.7,8.25h-.42v.62h.42Zm0,1.29h-.42v3.22h.42Z" style="fill:#1f325d"/><path d="M43.29,10.87c0-.85-.23-1.39-1-1.39a1.57,1.57,0,0,0-1.36.78V9.54H40.6v3.22H41v-2a1.3,1.3,0,0,1,1.17-.92c.47,0,.68.33.68,1.09v1.8h.42Z" style="fill:#1f325d"/><path d="M44.75,12.76V10.25h.89V9.92h-.89V9.44c0-.57.22-.89.61-.89a.8.8,0,0,1,.46.14l.13-.3a1.2,1.2,0,0,0-.67-.2c-.58,0-.95.48-.95,1.27v.46h-.44v.33h.44v2.51Z" style="fill:#1f325d"/><path d="M46.46,11.16a1.17,1.17,0,1,1,2.32,0,1.24,1.24,0,0,1-1.17,1.3,1.22,1.22,0,0,1-1.16-1.28m1.16,1.65A1.67,1.67,0,1,0,46,11.16a1.61,1.61,0,0,0,1.59,1.66" style="fill:#1f325d"/><path d="M51.5,9.53h-.18a1.26,1.26,0,0,0-1,.79V9.54H49.9v3.22h.42v-2a1.23,1.23,0,0,1,1.18-.85Z" style="fill:#1f325d"/><path d="M56.82,10.87c0-.84-.26-1.39-1-1.39a1.38,1.38,0,0,0-1.24.83.91.91,0,0,0-.95-.83,1.38,1.38,0,0,0-1.22.78V9.54h-.38v3.22h.42v-2a1.16,1.16,0,0,1,1.05-.92c.47,0,.7.33.7,1.09v1.8h.42v-2a1.16,1.16,0,0,1,1.05-.93c.47,0,.71.35.71,1.09v1.8h.42Z" style="fill:#1f325d"/><path d="M58.64,12.5a.72.72,0,0,1-.8-.7c0-.43.41-.69,1-.69a2.55,2.55,0,0,1,.88.17v.52a.46.46,0,0,1-.1.24,1.28,1.28,0,0,1-1,.45m-.1.32a1.59,1.59,0,0,0,1.24-.6v.25a.32.32,0,0,0,.34.3h.17v-.37c-.1,0-.15-.06-.15-.17V10.76a1.18,1.18,0,0,0-1.27-1.28,2.14,2.14,0,0,0-1.22.42l.15.28a1.82,1.82,0,0,1,1-.38.85.85,0,0,1,.9.93V11a2.71,2.71,0,0,0-.94-.17c-.8,0-1.35.39-1.35,1a1,1,0,0,0,1.1,1" style="fill:#1f325d"/><path d="M62.45,12.26a1,1,0,0,1-.49.14.36.36,0,0,1-.39-.35V9.87h.74V9.54h-.74V8.45h-.42V9.54h-.44v.33h.44v2.3a.61.61,0,0,0,.68.62,1.73,1.73,0,0,0,.73-.19Z" style="fill:#1f325d"/><path d="M63.48,8.25h-.42v.62h.42Zm0,1.29h-.42v3.22h.42Z" style="fill:#1f325d"/><path d="M64.59,11.16a1.17,1.17,0,1,1,2.32,0,1.24,1.24,0,0,1-1.17,1.3,1.22,1.22,0,0,1-1.16-1.28m1.16,1.65a1.67,1.67,0,1,0-1.59-1.66,1.61,1.61,0,0,0,1.59,1.66" style="fill:#1f325d"/><path d="M70.73,10.87c0-.85-.23-1.39-1-1.39a1.57,1.57,0,0,0-1.36.78V9.54H68v3.22h.42v-2a1.3,1.3,0,0,1,1.17-.92c.47,0,.68.33.68,1.09v1.8h.42Z" style="fill:#1f325d"/><path d="M31.62,20.07c.76,0,1.25-.38,1.25-1s-.42-.71-1.25-.91c-.57-.14-.8-.21-.8-.55s.35-.6.79-.6a1.35,1.35,0,0,1,1,.37l.2-.25a1.6,1.6,0,0,0-1.16-.44c-.66,0-1.2.33-1.2,1s.33.64,1.08.82,1,.25,1,.61-.34.61-.85.61a1.74,1.74,0,0,1-1.15-.44l-.19.28a2,2,0,0,0,1.35.48" style="fill:#1f325d"/><path d="M33.65,21.37l.21,0a.65.65,0,0,0,.69-.45l1.67-4.15h-.4l-1.09,2.83-1.19-2.83H33.1L34.5,20c-.33.82-.4.93-.49,1a.77.77,0,0,1-.23,0h-.12Z" style="fill:#1f325d"/><path d="M37.79,20.07c.76,0,1.25-.38,1.25-1s-.42-.71-1.25-.91c-.57-.14-.8-.21-.8-.55s.35-.6.79-.6a1.35,1.35,0,0,1,1,.37l.2-.25a1.6,1.6,0,0,0-1.16-.44c-.66,0-1.2.33-1.2,1s.33.64,1.08.82,1,.25,1,.61-.34.61-.85.61a1.74,1.74,0,0,1-1.15-.44l-.19.28a2,2,0,0,0,1.35.48" style="fill:#1f325d"/><path d="M41.14,19.51a1,1,0,0,1-.49.14.36.36,0,0,1-.39-.35V17.12H41v-.33h-.74V15.7h-.42v1.09h-.44v.33h.44v2.3a.61.61,0,0,0,.68.62,1.73,1.73,0,0,0,.73-.19Z" style="fill:#1f325d"/><path d="M42,18.23a1.19,1.19,0,0,1,1.17-1.17,1.2,1.2,0,0,1,1.19,1.17Zm1.18,1.84a1.46,1.46,0,0,0,1.36-.8l-.36-.1a1.07,1.07,0,0,1-1,.58A1.23,1.23,0,0,1,42,18.55h2.74a1,1,0,0,0,0-.17,1.6,1.6,0,1,0-3.19,0,1.63,1.63,0,0,0,1.61,1.68" style="fill:#1f325d"/><path d="M50.12,18.12c0-.84-.26-1.39-1-1.39a1.38,1.38,0,0,0-1.24.83.91.91,0,0,0-.95-.83,1.38,1.38,0,0,0-1.22.78v-.73h-.38V20h.42V18a1.16,1.16,0,0,1,1.05-.92c.47,0,.7.33.7,1.09V20h.42V18A1.16,1.16,0,0,1,49,17.12c.47,0,.71.35.71,1.09V20h.42Z" style="fill:#1f325d"/></svg>