<svg id="Calque_1" data-name="Calque 1" xmlns="http://www.w3.org/2000/svg" width="150.86" height="62.02" viewBox="0 0 150.86 62.02"><title>diagram_3g-4g</title><path d="M19.35,12.57c-5.37,7.29-9.2,16.78-9.2,30.17a49.84,49.84,0,0,0,9.2,29.8h-5C9.71,66.44,4.71,57,4.71,42.67s5-23.92,9.64-30.1Z" transform="translate(-4.71 -10.53)" style="fill:#1f325d"/><path d="M35.83,20c-4.15,5.62-7.1,12.95-7.1,23.28a38.45,38.45,0,0,0,7.1,23H32c-3.58-4.71-7.44-12-7.44-23.05S28.4,24.8,32,20Z" transform="translate(-4.71 -10.53)" style="fill:#1f325d"/><path d="M145.93,10.53c4.64,6.18,9.57,15.67,9.64,30.1s-5,23.77-9.64,29.88h-5a49.84,49.84,0,0,0,9.2-29.8c0-13.39-3.83-22.89-9.2-30.17Z" transform="translate(-4.71 -10.53)" style="fill:#1f325d"/><path d="M128.31,18c3.58,4.77,7.38,12.09,7.44,23.22s-3.86,18.34-7.44,23.05h-3.86a38.45,38.45,0,0,0,7.1-23c0-10.33-3-17.66-7.1-23.28Z" transform="translate(-4.71 -10.53)" style="fill:#1f325d"/><path d="M54.25,22.25a4.71,4.71,0,0,0,2.3.66c1.81,0,2.37-1.15,2.35-2,0-1.46-1.33-2.08-2.69-2.08h-.78V17.75h.78c1,0,2.32-.53,2.32-1.76,0-.83-.53-1.57-1.82-1.57a3.83,3.83,0,0,0-2.08.69l-.37-1a5,5,0,0,1,2.72-.8c2,0,3,1.22,3,2.48A2.58,2.58,0,0,1,58,18.22v0a2.71,2.71,0,0,1,2.32,2.67c0,1.67-1.3,3.12-3.79,3.12a5.29,5.29,0,0,1-2.71-.7Z" transform="translate(-4.71 -10.53)" style="fill:#1f325d"/><path d="M70.83,23.39a10,10,0,0,1-3.31.59,5.54,5.54,0,0,1-4-1.42,5.55,5.55,0,0,1-1.5-4C62,15.32,64.21,13,67.82,13a6.68,6.68,0,0,1,2.69.5l-.34,1.14a5.6,5.6,0,0,0-2.38-.46,4,4,0,0,0-4.34,4.34c0,2.74,1.65,4.35,4.16,4.35a4.56,4.56,0,0,0,1.86-.29V19.32H67.28V18.2h3.55Z" transform="translate(-4.71 -10.53)" style="fill:#1f325d"/><path d="M71.72,24.51,76.19,12.9h1.09L72.8,24.51Z" transform="translate(-4.71 -10.53)" style="fill:#1f325d"/><path d="M82.3,23.87V21H77.47v-.93l4.64-6.64h1.52v6.47h1.46V21H83.63v2.83Zm0-3.94V16.46q0-.82,0-1.63h0c-.32.61-.58,1.06-.86,1.54L78.89,19.9v0Z" transform="translate(-4.71 -10.53)" style="fill:#1f325d"/><path d="M94.86,23.39a10,10,0,0,1-3.31.59,5.54,5.54,0,0,1-4-1.42,5.55,5.55,0,0,1-1.5-4C86,15.32,88.24,13,91.85,13a6.68,6.68,0,0,1,2.69.5l-.34,1.14a5.59,5.59,0,0,0-2.38-.46,4,4,0,0,0-4.34,4.34c0,2.74,1.65,4.35,4.16,4.35a4.56,4.56,0,0,0,1.86-.29V19.32H91.31V18.2h3.55Z" transform="translate(-4.71 -10.53)" style="fill:#1f325d"/><path d="M53.53,41.52H49.34v3.89H54v1.17H47.95V35.79h5.83V37H49.34v3.41h4.19Z" transform="translate(-4.71 -10.53)" style="fill:#1f325d"/><path d="M57.42,36.61v2.22h2V39.9h-2v4.18c0,1,.27,1.5,1.06,1.5a3.09,3.09,0,0,0,.82-.1l.06,1.06a3.44,3.44,0,0,1-1.25.19,2,2,0,0,1-1.52-.59,2.87,2.87,0,0,1-.54-2V39.9h-1.2V38.83H56V37Z" transform="translate(-4.71 -10.53)" style="fill:#1f325d"/><path d="M61,35.21h1.41V40h0a2.61,2.61,0,0,1,1-1,2.91,2.91,0,0,1,1.44-.4c1,0,2.71.64,2.71,3.31v4.61H66.2V42.13c0-1.25-.46-2.3-1.79-2.3a2,2,0,0,0-1.89,1.41,1.71,1.71,0,0,0-.1.67v4.67H61Z" transform="translate(-4.71 -10.53)" style="fill:#1f325d"/><path d="M70.68,43a2.48,2.48,0,0,0,2.66,2.69,5.1,5.1,0,0,0,2.15-.4l.24,1a6.26,6.26,0,0,1-2.58.48,3.6,3.6,0,0,1-3.81-3.91c0-2.34,1.38-4.18,3.63-4.18,2.53,0,3.2,2.22,3.2,3.65a5.31,5.31,0,0,1,0,.66Zm4.13-1a2,2,0,0,0-2-2.29A2.33,2.33,0,0,0,70.7,42Z" transform="translate(-4.71 -10.53)" style="fill:#1f325d"/><path d="M77.91,41.25c0-.91,0-1.7-.06-2.42h1.23l0,1.52h.06a2.32,2.32,0,0,1,2.15-1.7,1.52,1.52,0,0,1,.4,0V40a2.11,2.11,0,0,0-.48,0,2,2,0,0,0-1.89,1.81,4,4,0,0,0-.06.66v4.13H77.91Z" transform="translate(-4.71 -10.53)" style="fill:#1f325d"/><path d="M83.21,40.93c0-.8,0-1.46-.06-2.1H84.4l.08,1.28h0a2.85,2.85,0,0,1,2.56-1.46c1.07,0,2.74.64,2.74,3.3v4.63H88.4V42.11c0-1.25-.46-2.29-1.79-2.29a2.06,2.06,0,0,0-2,2.1v4.66H83.21Z" transform="translate(-4.71 -10.53)" style="fill:#1f325d"/><path d="M92.87,43a2.48,2.48,0,0,0,2.66,2.69,5.1,5.1,0,0,0,2.15-.4l.24,1a6.26,6.26,0,0,1-2.58.48,3.6,3.6,0,0,1-3.81-3.91c0-2.34,1.38-4.18,3.63-4.18,2.53,0,3.2,2.22,3.2,3.65a5.21,5.21,0,0,1,0,.66ZM97,42a2,2,0,0,0-2-2.29A2.33,2.33,0,0,0,92.89,42Z" transform="translate(-4.71 -10.53)" style="fill:#1f325d"/><path d="M101.8,36.61v2.22h2V39.9h-2v4.18c0,1,.27,1.5,1.06,1.5a3.09,3.09,0,0,0,.82-.1l.06,1.06a3.44,3.44,0,0,1-1.25.19,2,2,0,0,1-1.52-.59,2.87,2.87,0,0,1-.54-2V39.9h-1.2V38.83h1.2V37Z" transform="translate(-4.71 -10.53)" style="fill:#1f325d"/><path d="M57.79,69.29,55.05,58.5h1.47L57.81,64c.32,1.34.61,2.69.8,3.73h0c.18-1.07.51-2.35.88-3.75L61,58.5h1.46L63.73,64c.3,1.28.59,2.56.75,3.7h0c.22-1.18.53-2.39.86-3.73L66.8,58.5h1.42L65.17,69.29H63.71l-1.36-5.62a32.52,32.52,0,0,1-.7-3.52h0a33.62,33.62,0,0,1-.83,3.52l-1.54,5.62Z" transform="translate(-4.71 -10.53)" style="fill:#1f325d"/><path d="M69.56,58.5H71v9.62h4.61v1.17h-6Z" transform="translate(-4.71 -10.53)" style="fill:#1f325d"/><path d="M78.86,65.89l-1.12,3.39H76.3L80,58.5h1.68l3.68,10.79H83.84l-1.15-3.39ZM82.4,64.8,81.34,61.7c-.24-.7-.4-1.34-.56-2h0c-.16.64-.34,1.3-.54,2L79.15,64.8Z" transform="translate(-4.71 -10.53)" style="fill:#1f325d"/><path d="M86.91,69.29V58.5h1.52L91.89,64a30.64,30.64,0,0,1,1.94,3.5l0,0C93.73,66,93.7,64.69,93.7,63V58.5H95V69.29H93.6l-3.42-5.47a34.28,34.28,0,0,1-2-3.6l0,0c.08,1.36.11,2.66.11,4.45v4.61Z" transform="translate(-4.71 -10.53)" style="fill:#1f325d"/></svg>