<svg id="Calque_1" data-name="Calque 1" xmlns="http://www.w3.org/2000/svg" width="59.16" height="61.13" viewBox="0 0 59.16 61.13"><title>diagram_remote-equipment</title><path d="M19.54,5.52A46.66,46.66,0,0,1,8.66,9,50.61,50.61,0,0,1,5.34,20.19,50,50,0,0,1,0,30.56,50,50,0,0,1,5.34,40.94,50.61,50.61,0,0,1,8.66,52.18a46.7,46.7,0,0,1,10.88,3.43,47.49,47.49,0,0,1,10,5.52,47.49,47.49,0,0,1,10-5.52A46.7,46.7,0,0,1,50.5,52.18a50.81,50.81,0,0,1,3.32-11.24,50,50,0,0,1,5.34-10.37,50,50,0,0,1-5.34-10.37A50.81,50.81,0,0,1,50.5,9,46.66,46.66,0,0,1,39.62,5.52,47.44,47.44,0,0,1,29.58,0a47.44,47.44,0,0,1-10,5.52" style="fill:#fcbe0e"/></svg>