<?xml version="1.0" encoding="utf-8"?>
<!-- Generator: Adobe Illustrator 19.0.0, SVG Export Plug-In . SVG Version: 6.00 Build 0)  -->
<svg version="1.1" id="Calque_1" xmlns="http://www.w3.org/2000/svg" xmlns:xlink="http://www.w3.org/1999/xlink" x="0px" y="0px"
	 viewBox="0 0 50 50" style="enable-background:new 0 0 50 50;" xml:space="preserve">
<style type="text/css">
	.st0{fill:#FFFFFF;}
	.st1{fill-rule:evenodd;clip-rule:evenodd;fill:#FBBF0D;}
	.st2{fill-rule:evenodd;clip-rule:evenodd;fill:#FFFFFF;}
</style>
<path id="XMLID_143_" class="st0" d="M-95.4-31.1h2.9v-7.2h2l0.2-2.4h-2.2c0,0,0-0.9,0-1.4c0-0.6,0.1-0.8,0.7-0.8c0.4,0,1.6,0,1.6,0
	v-2.5c0,0-1.6,0-2,0c-2.1,0-3.1,0.9-3.1,2.7c0,1.6,0,1.9,0,1.9h-1.5v2.4h1.5V-31.1z"/>
<g id="XMLID_138_">
	<g id="XMLID_140_">
		<rect id="XMLID_142_" x="78.8" y="-41.6" class="st0" width="2.4" height="7.9"/>
		<ellipse id="XMLID_141_" class="st0" cx="80" cy="-44.1" rx="1.4" ry="1.5"/>
	</g>
	<path id="XMLID_139_" class="st0" d="M85.1-37.8c0-1.1,0.5-1.8,1.5-1.8c0.9,0,1.3,0.6,1.3,1.8c0,1.1,0,4.1,0,4.1h2.4c0,0,0-2.9,0-5
		c0-2.1-1.2-3.1-2.9-3.1c-1.7,0-2.4,1.3-2.4,1.3v-1.1h-2.3v7.9h2.3C85.1-33.7,85.1-36.6,85.1-37.8z"/>
</g>
<g id="XMLID_120_">
	<path id="XMLID_137_" class="st1" d="M-79.4-39c0,3.2-1,6.2-2.9,8.7c-0.7-0.6-0.7-0.6-0.7-0.6c1.7-2.2,2.7-5.1,2.7-8.1
		c0-5.5-3.3-10.3-8.1-12.5c0.2-0.9,0.2-0.9,0.2-0.9c1.7,0.7,3.2,1.7,4.5,3C-81-46.5-79.4-42.8-79.4-39L-79.4-39z"/>
	<path id="XMLID_136_" class="st1" d="M-102.5-28.3c-0.5,0.8-0.5,0.8-0.5,0.8c-0.4-0.4-0.9-0.7-1.3-1.2c-2.4-2.5-3.9-5.6-4.2-9
		c0.9-0.3,0.9-0.3,0.9-0.3C-107.3-34-105.4-30.6-102.5-28.3L-102.5-28.3z"/>
	<path id="XMLID_133_" class="st2" d="M-94-26c-7.1,0-12.9-5.8-12.9-13c0-7.1,5.8-13,12.9-13c7.2,0,13,5.9,13,13
		C-81-31.8-86.8-26-94-26L-94-26z M-94-51.6c-7,0-12.6,5.7-12.6,12.7S-101-26.3-94-26.3c7,0,12.7-5.7,12.7-12.7S-87-51.6-94-51.6
		L-94-51.6z"/>
	<path id="XMLID_130_" class="st2" d="M-94-22.7c-8.9,0-16.2-7.3-16.2-16.2s7.3-16.2,16.2-16.2c9,0,16.2,7.3,16.2,16.2
		S-85-22.7-94-22.7L-94-22.7z M-94-54.8c-8.8,0-15.9,7.1-15.9,15.9s7.1,16,15.9,16s16-7.2,16-16S-85.2-54.8-94-54.8L-94-54.8z"/>
	<path id="XMLID_129_" class="st2" d="M-96.9-23.7c0-0.1,0.1-0.1,0.1-0.1c0,0,0.1,0,0.4,0.1c0.1,0,0.3,0,0.5,0.1c0.1,0,0.1,0,0.2,0
		c0.1,0,0.2,0,0.3,0c0.1,0,0.2,0.1,0.3,0.1c0.1,0,0.1,0,0.1,0c0.1,0,0.1,0,0.1,0c0.2,0,0.4,0,0.5,0s0.2,0,0.4,0c0.1,0,0.1,0,0.1,0
		c0.1,0,0.1,0.1,0.1,0.1c0,1,0,1,0,1l-0.1,0.1c0,0-0.1,0-0.1,0c-0.1,0-0.2,0-0.4,0c-0.2,0-0.4,0-0.6,0c0,0-0.1,0-0.1,0
		c0,0-0.1,0-0.1,0c-0.1-0.1-0.2-0.1-0.3-0.1c-0.1,0-0.2,0-0.3,0s-0.2,0-0.3-0.1c-0.2,0-0.4,0-0.5,0c-0.1-0.1-0.3-0.1-0.4-0.1
		c-0.1-0.1-0.1-0.1-0.1-0.1c-0.1,0-0.1,0-0.1-0.1L-96.9-23.7L-96.9-23.7L-96.9-23.7z"/>
	<path id="XMLID_128_" class="st2" d="M-101.7-25.5c0.1-0.1,0.1-0.1,0.1-0.1c0,0,0.1,0.1,0.1,0.1c0,0.1,0.1,0.1,0.1,0.1
		c0.1,0.1,0.1,0.1,0.2,0.1c0.1,0,0.3,0.1,0.4,0.2c0.1,0,0.1,0.1,0.2,0.1c0.1,0.1,0.2,0.1,0.3,0.1c0.1,0,0.1,0.1,0.2,0.1
		c0.1,0.1,0.2,0.1,0.3,0.1c0.1,0.1,0.3,0.1,0.4,0.1c0.3,0.1,0.4,0.1,0.4,0.1c0.1,0.1,0.1,0.1,0.1,0.1c-0.3,0.9-0.3,0.9-0.3,0.9
		s-0.1,0.1-0.1,0.1c0,0-0.1-0.1-0.4-0.2c-0.1,0-0.4-0.1-0.5-0.1c-0.1-0.1-0.2-0.1-0.3-0.1c-0.1,0-0.1-0.1-0.3-0.1
		c-0.1,0-0.1-0.1-0.3-0.1c-0.1-0.1-0.1-0.1-0.2-0.1c-0.2-0.1-0.4-0.1-0.5-0.2c-0.1-0.1-0.1-0.1-0.1-0.1c-0.1,0-0.1,0-0.1-0.1
		c-0.1,0-0.1-0.1-0.1-0.1s-0.1-0.1,0-0.1L-101.7-25.5L-101.7-25.5L-101.7-25.5z"/>
	<path id="XMLID_127_" class="st2" d="M-98.3-24C-98.3-24.1-98.3-24.1-98.3-24c0.1-0.1,0.3,0,0.5,0c0.1,0.1,0.2,0.1,0.3,0.1
		c0.1,0.1,0.1,0.1,0.1,0.1c0.1,0,0.1,0,0,0.1c-0.2,0.9-0.2,0.9-0.2,0.9c0,0.1,0,0.1,0,0.1s-0.1,0-0.1,0c-0.1,0-0.2-0.1-0.3-0.1
		c-0.2-0.1-0.5-0.1-0.5-0.1v-0.1L-98.3-24L-98.3-24L-98.3-24z"/>
	<path id="XMLID_126_" class="st2" d="M-105.7-49.1c0.1,0.1,0.1,0.1,0,0.1c0,0,0,0.1-0.1,0.1c0,0.1-0.1,0.1-0.1,0.1
		c-0.1,0.1-0.1,0.1-0.1,0.1c-0.1,0.1-0.2,0.2-0.3,0.4c-0.1,0.1-0.2,0.4-0.4,0.5c0,0,0,0.1-0.1,0.1c0,0.1,0,0.1,0,0.1
		c-0.1,0.1-0.1,0.1-0.1,0.1c-0.1,0.1-0.1,0.1-0.1,0.2c-0.1,0.1-0.1,0.1-0.1,0.2c0,0.1-0.1,0.1-0.1,0.2c-0.1,0.2-0.2,0.4-0.2,0.4
		c0,0.1-0.1,0.1-0.1,0.1c-0.9-0.5-0.9-0.5-0.9-0.5c-0.1,0-0.1-0.1-0.1-0.1s0.1-0.2,0.3-0.5c0,0,0.1-0.1,0.1-0.1
		c0-0.1,0.1-0.2,0.1-0.3c0-0.1,0.1-0.1,0.1-0.2v-0.1c0.1-0.1,0.1-0.1,0.1-0.1s0.1-0.1,0.1-0.1c0.1-0.1,0.2-0.3,0.4-0.4
		s0.2-0.3,0.3-0.4c0.1-0.1,0.1-0.1,0.1-0.1c0.1-0.1,0.1-0.1,0.1-0.1c0-0.1,0.1-0.1,0.1-0.1c0-0.1,0.1-0.1,0.1-0.1L-105.7-49.1
		L-105.7-49.1L-105.7-49.1z"/>
	<path id="XMLID_125_" class="st2" d="M-101.7-52.4C-101.7-52.4-101.7-52.3-101.7-52.4c-0.1,0.1-0.1,0.1-0.1,0.1
		c-0.1,0.1-0.2,0.1-0.3,0.2c-0.1,0.1-0.3,0.1-0.4,0.3c-0.1,0.1-0.3,0.1-0.4,0.3c-0.1,0.1-0.3,0.2-0.4,0.4c-0.1,0-0.1,0.1-0.2,0.1
		c0,0-0.1,0-0.1,0.1c-0.1,0-0.1,0.1-0.1,0.1c-0.2,0.1-0.4,0.3-0.4,0.3c-0.1,0.1-0.1,0.1-0.1,0c-0.7-0.7-0.7-0.7-0.7-0.7
		c-0.1-0.1-0.1-0.1,0-0.1c0,0,0.1-0.1,0.4-0.3c0.1-0.1,0.1-0.1,0.1-0.1c0,0,0,0,0.1-0.1c0.1,0,0.1-0.1,0.2-0.1
		c0.1-0.1,0.3-0.2,0.4-0.4c0.2-0.1,0.4-0.2,0.5-0.4c0.1-0.1,0.4-0.1,0.4-0.3c0.1-0.1,0.3-0.1,0.4-0.1c0.1-0.1,0.1-0.1,0.1-0.1
		c0.1-0.1,0.1,0,0.1,0L-101.7-52.4L-101.7-52.4L-101.7-52.4z"/>
	<path id="XMLID_124_" class="st1" d="M-104.7-50.2c0.1,0.1,0.1,0.1,0.1,0.1c0,0-0.1,0-0.1,0.1c0,0.1-0.1,0.1-0.2,0.2
		c-0.1,0.1-0.3,0.3-0.3,0.3s0,0-0.1-0.1c-0.7-0.7-0.7-0.7-0.7-0.7v-0.1c0,0,0.1-0.1,0.3-0.3c0.1-0.1,0.1-0.2,0.2-0.3
		c0.1,0,0.1-0.1,0.1-0.1s0,0,0.1,0.1L-104.7-50.2L-104.7-50.2L-104.7-50.2z"/>
	<path id="XMLID_123_" class="st2" d="M-79.3-44L-79.3-44c-0.1-0.1-0.1-0.1-0.1-0.2c0-0.1-0.1-0.1-0.1-0.3c-0.1-0.1-0.1-0.1-0.1-0.2
		c0-0.1,0-0.1,0-0.1c0,0,0,0-0.1-0.1c0,0,0,0,0-0.1c-0.1-0.1-0.1-0.3-0.2-0.5l-0.1-0.1c0-0.1,0-0.1-0.1-0.1c0-0.1-0.1-0.1-0.1-0.2
		c-0.1-0.2-0.2-0.4-0.3-0.4c-0.1-0.3-0.2-0.4-0.2-0.4c0-0.1,0-0.1,0.1-0.1c0.8-0.5,0.8-0.5,0.8-0.5c0.1,0,0.1,0,0.1,0.1
		c0,0,0.1,0.1,0.2,0.4c0.1,0.1,0.2,0.3,0.3,0.4c0,0.1,0.1,0.2,0.1,0.3c0,0,0,0.1,0.1,0.1c0,0,0,0.1,0,0.1c0.1,0.1,0.2,0.4,0.3,0.5
		v0.1c0,0,0,0.1,0.1,0.1c0,0.1,0,0.1,0,0.1c0.1,0.1,0.1,0.1,0.1,0.2c0,0.1,0.1,0.2,0.1,0.4c0.1,0.1,0.1,0.1,0.1,0.1
		c0,0.1,0,0.1-0.1,0.1L-79.3-44L-79.3-44L-79.3-44z"/>
	<path id="XMLID_122_" class="st2" d="M-78.5-39L-78.5-39c-0.1-0.1-0.1-0.3-0.1-0.6c0-0.1,0-0.1,0-0.2s0-0.1,0-0.3
		c-0.1-0.1-0.1-0.4-0.1-0.5c-0.1-0.4-0.1-0.8-0.1-1.1c0-0.1-0.1-0.2-0.1-0.3c0-0.1,0-0.1,0-0.1l0,0c0-0.1,0-0.1,0.1-0.1
		c0.9-0.2,0.9-0.2,0.9-0.2c0.1,0,0.1,0,0.1,0.1h0.1c0,0.1,0,0.1,0,0.1c0,0.1,0,0.2,0.1,0.4c0.1,0.3,0.1,0.6,0.1,1.1
		c0,0.2,0,0.4,0.1,0.6c0,0.1,0,0.2,0,0.3c0,0.1,0,0.1,0,0.2c0,0.4,0,0.6,0,0.6s0,0.1-0.1,0.1H-78.5L-78.5-39L-78.5-39z"/>
	<path id="XMLID_121_" class="st2" d="M-78.9-42.6L-78.9-42.6c-0.1,0-0.1-0.1-0.1-0.1c-0.1-0.1-0.1-0.1-0.1-0.3
		c-0.1-0.1-0.2-0.4-0.2-0.4s0-0.1,0.1-0.1c1-0.3,1-0.3,1-0.3c0.1,0,0.1,0,0.1,0s0.1,0.2,0.2,0.4c0,0.1,0.1,0.2,0.1,0.3
		c0,0.1,0.1,0.1,0.1,0.1c0,0.1-0.1,0.1-0.2,0.1L-78.9-42.6L-78.9-42.6L-78.9-42.6z"/>
</g>
<g id="XMLID_102_">
	<path id="XMLID_119_" class="st1" d="M-20.1-39c0,3.2-1,6.2-2.9,8.7c-0.7-0.6-0.7-0.6-0.7-0.6c1.7-2.2,2.7-5.1,2.7-8.1
		c0-5.5-3.3-10.3-8.1-12.5c0.2-0.9,0.2-0.9,0.2-0.9c1.7,0.7,3.2,1.7,4.5,3C-21.6-46.5-20.1-42.8-20.1-39L-20.1-39z"/>
	<path id="XMLID_118_" class="st1" d="M-43.1-28.3c-0.5,0.8-0.5,0.8-0.5,0.8c-0.4-0.4-0.9-0.7-1.3-1.2c-2.4-2.5-3.9-5.6-4.2-9
		c0.9-0.3,0.9-0.3,0.9-0.3C-48-34-46-30.6-43.1-28.3L-43.1-28.3z"/>
	<path id="XMLID_115_" class="st2" d="M-34.6-26c-7.1,0-12.9-5.8-12.9-13c0-7.1,5.8-13,12.9-13c7.2,0,13,5.9,13,13
		C-21.7-31.8-27.5-26-34.6-26L-34.6-26z M-34.6-51.6c-7,0-12.6,5.7-12.6,12.7s5.7,12.7,12.6,12.7c7,0,12.7-5.7,12.7-12.7
		S-27.6-51.6-34.6-51.6L-34.6-51.6z"/>
	<path id="XMLID_112_" class="st2" d="M-34.6-22.7c-8.9,0-16.2-7.3-16.2-16.2s7.3-16.2,16.2-16.2c9,0,16.2,7.3,16.2,16.2
		S-25.6-22.7-34.6-22.7L-34.6-22.7z M-34.6-54.8c-8.8,0-15.9,7.1-15.9,15.9s7.1,16,15.9,16s16-7.2,16-16S-25.9-54.8-34.6-54.8
		L-34.6-54.8z"/>
	<path id="XMLID_111_" class="st2" d="M-37.5-23.7c0-0.1,0.1-0.1,0.1-0.1c0,0,0.1,0,0.4,0.1c0.1,0,0.3,0,0.5,0.1c0.1,0,0.1,0,0.2,0
		c0.1,0,0.2,0,0.3,0c0.1,0,0.2,0.1,0.3,0.1c0.1,0,0.1,0,0.1,0c0.1,0,0.1,0,0.1,0c0.2,0,0.4,0,0.5,0s0.2,0,0.4,0c0.1,0,0.1,0,0.1,0
		c0.1,0,0.1,0.1,0.1,0.1c0,1,0,1,0,1l-0.1,0.1c0,0-0.1,0-0.1,0c-0.1,0-0.2,0-0.4,0c-0.2,0-0.4,0-0.6,0c0,0-0.1,0-0.1,0
		c0,0-0.1,0-0.1,0c-0.1-0.1-0.2-0.1-0.3-0.1c-0.1,0-0.2,0-0.3,0c-0.1,0-0.2,0-0.3-0.1c-0.2,0-0.4,0-0.5,0c-0.1-0.1-0.3-0.1-0.4-0.1
		c-0.1-0.1-0.1-0.1-0.1-0.1c-0.1,0-0.1,0-0.1-0.1L-37.5-23.7L-37.5-23.7L-37.5-23.7z"/>
	<path id="XMLID_110_" class="st2" d="M-42.4-25.5c0.1-0.1,0.1-0.1,0.1-0.1c0,0,0.1,0.1,0.1,0.1c0,0.1,0.1,0.1,0.1,0.1
		c0.1,0.1,0.1,0.1,0.2,0.1c0.1,0,0.3,0.1,0.4,0.2c0.1,0,0.1,0.1,0.2,0.1c0.1,0.1,0.2,0.1,0.3,0.1c0.1,0,0.1,0.1,0.2,0.1
		c0.1,0.1,0.2,0.1,0.3,0.1c0.1,0.1,0.3,0.1,0.4,0.1c0.3,0.1,0.4,0.1,0.4,0.1c0.1,0.1,0.1,0.1,0.1,0.1c-0.3,0.9-0.3,0.9-0.3,0.9
		s-0.1,0.1-0.1,0.1c0,0-0.1-0.1-0.4-0.2c-0.1,0-0.4-0.1-0.5-0.1c-0.1-0.1-0.2-0.1-0.3-0.1c-0.1,0-0.1-0.1-0.3-0.1
		c-0.1,0-0.1-0.1-0.3-0.1c-0.1-0.1-0.1-0.1-0.2-0.1c-0.2-0.1-0.4-0.1-0.5-0.2c-0.1-0.1-0.1-0.1-0.1-0.1c-0.1,0-0.1,0-0.1-0.1
		c-0.1,0-0.1-0.1-0.1-0.1s-0.1-0.1,0-0.1L-42.4-25.5L-42.4-25.5L-42.4-25.5z"/>
	<path id="XMLID_109_" class="st2" d="M-39-24C-39-24.1-38.9-24.1-39-24c0.1-0.1,0.3,0,0.5,0c0.1,0.1,0.2,0.1,0.3,0.1
		c0.1,0.1,0.1,0.1,0.1,0.1c0.1,0,0.1,0,0,0.1c-0.2,0.9-0.2,0.9-0.2,0.9c0,0.1,0,0.1,0,0.1s-0.1,0-0.1,0c-0.1,0-0.2-0.1-0.3-0.1
		c-0.2-0.1-0.5-0.1-0.5-0.1v-0.1L-39-24L-39-24L-39-24z"/>
	<path id="XMLID_108_" class="st2" d="M-46.3-49.1c0.1,0.1,0.1,0.1,0,0.1c0,0,0,0.1-0.1,0.1c0,0.1-0.1,0.1-0.1,0.1
		c-0.1,0.1-0.1,0.1-0.1,0.1c-0.1,0.1-0.2,0.2-0.3,0.4c-0.1,0.1-0.2,0.4-0.4,0.5c0,0,0,0.1-0.1,0.1c0,0.1,0,0.1,0,0.1
		c-0.1,0.1-0.1,0.1-0.1,0.1c-0.1,0.1-0.1,0.1-0.1,0.2c-0.1,0.1-0.1,0.1-0.1,0.2c0,0.1-0.1,0.1-0.1,0.2c-0.1,0.2-0.2,0.4-0.2,0.4
		c0,0.1-0.1,0.1-0.1,0.1c-0.9-0.5-0.9-0.5-0.9-0.5c-0.1,0-0.1-0.1-0.1-0.1s0.1-0.2,0.3-0.5c0,0,0.1-0.1,0.1-0.1
		c0-0.1,0.1-0.2,0.1-0.3c0-0.1,0.1-0.1,0.1-0.2v-0.1c0.1-0.1,0.1-0.1,0.1-0.1s0.1-0.1,0.1-0.1c0.1-0.1,0.2-0.3,0.4-0.4
		s0.2-0.3,0.3-0.4c0.1-0.1,0.1-0.1,0.1-0.1c0.1-0.1,0.1-0.1,0.1-0.1c0-0.1,0.1-0.1,0.1-0.1c0-0.1,0.1-0.1,0.1-0.1L-46.3-49.1
		L-46.3-49.1L-46.3-49.1z"/>
	<path id="XMLID_107_" class="st2" d="M-42.4-52.4C-42.4-52.4-42.4-52.3-42.4-52.4c-0.1,0.1-0.1,0.1-0.1,0.1
		c-0.1,0.1-0.2,0.1-0.3,0.2c-0.1,0.1-0.3,0.1-0.4,0.3c-0.1,0.1-0.3,0.1-0.4,0.3c-0.1,0.1-0.3,0.2-0.4,0.4c-0.1,0-0.1,0.1-0.2,0.1
		c0,0-0.1,0-0.1,0.1c-0.1,0-0.1,0.1-0.1,0.1c-0.2,0.1-0.4,0.3-0.4,0.3c-0.1,0.1-0.1,0.1-0.1,0c-0.7-0.7-0.7-0.7-0.7-0.7
		c-0.1-0.1-0.1-0.1,0-0.1c0,0,0.1-0.1,0.4-0.3c0.1-0.1,0.1-0.1,0.1-0.1c0,0,0,0,0.1-0.1c0.1,0,0.1-0.1,0.2-0.1
		c0.1-0.1,0.3-0.2,0.4-0.4c0.2-0.1,0.4-0.2,0.5-0.4c0.1-0.1,0.4-0.1,0.4-0.3c0.1-0.1,0.3-0.1,0.4-0.1c0.1-0.1,0.1-0.1,0.1-0.1
		c0.1-0.1,0.1,0,0.1,0L-42.4-52.4L-42.4-52.4L-42.4-52.4z"/>
	<path id="XMLID_106_" class="st1" d="M-45.4-50.2c0.1,0.1,0.1,0.1,0.1,0.1c0,0-0.1,0-0.1,0.1c0,0.1-0.1,0.1-0.2,0.2
		c-0.1,0.1-0.3,0.3-0.3,0.3s0,0-0.1-0.1c-0.7-0.7-0.7-0.7-0.7-0.7v-0.1c0,0,0.1-0.1,0.3-0.3c0.1-0.1,0.1-0.2,0.2-0.3
		c0.1,0,0.1-0.1,0.1-0.1s0,0,0.1,0.1L-45.4-50.2L-45.4-50.2L-45.4-50.2z"/>
	<path id="XMLID_105_" class="st2" d="M-20-44L-20-44c-0.1-0.1-0.1-0.1-0.1-0.2c0-0.1-0.1-0.1-0.1-0.3c-0.1-0.1-0.1-0.1-0.1-0.2
		c0-0.1,0-0.1,0-0.1c0,0,0,0-0.1-0.1c0,0,0,0,0-0.1c-0.1-0.1-0.1-0.3-0.2-0.5l-0.1-0.1c0-0.1,0-0.1-0.1-0.1c0-0.1-0.1-0.1-0.1-0.2
		c-0.1-0.2-0.2-0.4-0.3-0.4c-0.1-0.3-0.2-0.4-0.2-0.4c0-0.1,0-0.1,0.1-0.1c0.8-0.5,0.8-0.5,0.8-0.5c0.1,0,0.1,0,0.1,0.1
		c0,0,0.1,0.1,0.2,0.4c0.1,0.1,0.2,0.3,0.3,0.4c0,0.1,0.1,0.2,0.1,0.3c0,0,0,0.1,0.1,0.1c0,0,0,0.1,0,0.1c0.1,0.1,0.2,0.4,0.3,0.5
		v0.1c0,0,0,0.1,0.1,0.1c0,0.1,0,0.1,0,0.1c0.1,0.1,0.1,0.1,0.1,0.2c0,0.1,0.1,0.2,0.1,0.4c0.1,0.1,0.1,0.1,0.1,0.1
		c0,0.1,0,0.1-0.1,0.1L-20-44L-20-44L-20-44z"/>
	<path id="XMLID_104_" class="st2" d="M-19.1-39L-19.1-39c-0.1-0.1-0.1-0.3-0.1-0.6c0-0.1,0-0.1,0-0.2s0-0.1,0-0.3
		c-0.1-0.1-0.1-0.4-0.1-0.5c-0.1-0.4-0.1-0.8-0.1-1.1c0-0.1-0.1-0.2-0.1-0.3c0-0.1,0-0.1,0-0.1l0,0c0-0.1,0-0.1,0.1-0.1
		c0.9-0.2,0.9-0.2,0.9-0.2c0.1,0,0.1,0,0.1,0.1h0.1c0,0.1,0,0.1,0,0.1c0,0.1,0,0.2,0.1,0.4c0.1,0.3,0.1,0.6,0.1,1.1
		c0,0.2,0,0.4,0.1,0.6c0,0.1,0,0.2,0,0.3c0,0.1,0,0.1,0,0.2c0,0.4,0,0.6,0,0.6s0,0.1-0.1,0.1H-19.1L-19.1-39L-19.1-39z"/>
	<path id="XMLID_103_" class="st2" d="M-19.6-42.6L-19.6-42.6c-0.1,0-0.1-0.1-0.1-0.1c-0.1-0.1-0.1-0.1-0.1-0.3
		c-0.1-0.1-0.2-0.4-0.2-0.4s0-0.1,0.1-0.1c1-0.3,1-0.3,1-0.3c0.1,0,0.1,0,0.1,0s0.1,0.2,0.2,0.4c0,0.1,0.1,0.2,0.1,0.3
		c0,0.1,0.1,0.1,0.1,0.1c0,0.1-0.1,0.1-0.2,0.1L-19.6-42.6L-19.6-42.6L-19.6-42.6z"/>
</g>
<g id="XMLID_84_">
	<path id="XMLID_101_" class="st1" d="M39.3-39c0,3.2-1,6.2-2.9,8.7c-0.7-0.6-0.7-0.6-0.7-0.6c1.7-2.2,2.7-5.1,2.7-8.1
		c0-5.5-3.3-10.3-8.1-12.5c0.2-0.9,0.2-0.9,0.2-0.9c1.7,0.7,3.2,1.7,4.5,3C37.8-46.5,39.3-42.8,39.3-39L39.3-39z"/>
	<path id="XMLID_100_" class="st1" d="M16.3-28.3c-0.5,0.8-0.5,0.8-0.5,0.8c-0.4-0.4-0.9-0.7-1.3-1.2c-2.4-2.5-3.9-5.6-4.2-9
		c0.9-0.3,0.9-0.3,0.9-0.3C11.4-34,13.3-30.6,16.3-28.3L16.3-28.3z"/>
	<path id="XMLID_97_" class="st2" d="M24.7-26c-7.1,0-12.9-5.8-12.9-13c0-7.1,5.8-13,12.9-13c7.2,0,13,5.9,13,13
		C37.7-31.8,31.9-26,24.7-26L24.7-26z M24.7-51.6c-7,0-12.6,5.7-12.6,12.7s5.7,12.7,12.6,12.7c7,0,12.7-5.7,12.7-12.7
		S31.7-51.6,24.7-51.6L24.7-51.6z"/>
	<path id="XMLID_94_" class="st2" d="M24.7-22.7C15.8-22.7,8.5-30,8.5-39s7.3-16.2,16.2-16.2c9,0,16.2,7.3,16.2,16.2
		S33.7-22.7,24.7-22.7L24.7-22.7z M24.7-54.8c-8.8,0-15.9,7.1-15.9,15.9s7.1,16,15.9,16s16-7.2,16-16S33.5-54.8,24.7-54.8L24.7-54.8
		z"/>
	<path id="XMLID_93_" class="st2" d="M21.8-23.7c0-0.1,0.1-0.1,0.1-0.1c0,0,0.1,0,0.4,0.1c0.1,0,0.3,0,0.5,0.1c0.1,0,0.1,0,0.2,0
		c0.1,0,0.2,0,0.3,0c0.1,0,0.2,0.1,0.3,0.1s0.1,0,0.1,0c0.1,0,0.1,0,0.1,0c0.2,0,0.4,0,0.5,0c0.1,0,0.2,0,0.4,0c0.1,0,0.1,0,0.1,0
		c0.1,0,0.1,0.1,0.1,0.1c0,1,0,1,0,1L25-22.3c0,0-0.1,0-0.1,0c-0.1,0-0.2,0-0.4,0c-0.2,0-0.4,0-0.6,0c0,0-0.1,0-0.1,0
		c0,0-0.1,0-0.1,0c-0.1-0.1-0.2-0.1-0.3-0.1s-0.2,0-0.3,0s-0.2,0-0.3-0.1c-0.2,0-0.4,0-0.5,0c-0.1-0.1-0.3-0.1-0.4-0.1
		c-0.1-0.1-0.1-0.1-0.1-0.1c-0.1,0-0.1,0-0.1-0.1L21.8-23.7L21.8-23.7L21.8-23.7z"/>
	<path id="XMLID_92_" class="st2" d="M17-25.5c0.1-0.1,0.1-0.1,0.1-0.1c0,0,0.1,0.1,0.1,0.1c0,0.1,0.1,0.1,0.1,0.1
		c0.1,0.1,0.1,0.1,0.2,0.1c0.1,0,0.3,0.1,0.4,0.2c0.1,0,0.1,0.1,0.2,0.1c0.1,0.1,0.2,0.1,0.3,0.1c0.1,0,0.1,0.1,0.2,0.1
		c0.1,0.1,0.2,0.1,0.3,0.1c0.1,0.1,0.3,0.1,0.4,0.1c0.3,0.1,0.4,0.1,0.4,0.1c0.1,0.1,0.1,0.1,0.1,0.1c-0.3,0.9-0.3,0.9-0.3,0.9
		s-0.1,0.1-0.1,0.1c0,0-0.1-0.1-0.4-0.2c-0.1,0-0.4-0.1-0.5-0.1c-0.1-0.1-0.2-0.1-0.3-0.1c-0.1,0-0.1-0.1-0.3-0.1
		c-0.1,0-0.1-0.1-0.3-0.1C17.6-24,17.5-24,17.5-24c-0.2-0.1-0.4-0.1-0.5-0.2c-0.1-0.1-0.1-0.1-0.1-0.1c-0.1,0-0.1,0-0.1-0.1
		c-0.1,0-0.1-0.1-0.1-0.1s-0.1-0.1,0-0.1L17-25.5L17-25.5L17-25.5z"/>
	<path id="XMLID_91_" class="st2" d="M20.4-24C20.4-24.1,20.5-24.1,20.4-24c0.1-0.1,0.3,0,0.5,0c0.1,0.1,0.2,0.1,0.3,0.1
		c0.1,0.1,0.1,0.1,0.1,0.1c0.1,0,0.1,0,0,0.1C21-22.9,21-22.9,21-22.9c0,0.1,0,0.1,0,0.1s-0.1,0-0.1,0s-0.2-0.1-0.3-0.1
		c-0.2-0.1-0.5-0.1-0.5-0.1v-0.1L20.4-24L20.4-24L20.4-24z"/>
	<path id="XMLID_90_" class="st2" d="M13-49.1c0.1,0.1,0.1,0.1,0,0.1c0,0,0,0.1-0.1,0.1c0,0.1-0.1,0.1-0.1,0.1
		c-0.1,0.1-0.1,0.1-0.1,0.1c-0.1,0.1-0.2,0.2-0.3,0.4c-0.1,0.1-0.2,0.4-0.4,0.5c0,0,0,0.1-0.1,0.1c0,0.1,0,0.1,0,0.1
		c-0.1,0.1-0.1,0.1-0.1,0.1c-0.1,0.1-0.1,0.1-0.1,0.2c-0.1,0.1-0.1,0.1-0.1,0.2c0,0.1-0.1,0.1-0.1,0.2c-0.1,0.2-0.2,0.4-0.2,0.4
		c0,0.1-0.1,0.1-0.1,0.1c-0.9-0.5-0.9-0.5-0.9-0.5c-0.1,0-0.1-0.1-0.1-0.1s0.1-0.2,0.3-0.5c0,0,0.1-0.1,0.1-0.1
		c0-0.1,0.1-0.2,0.1-0.3c0-0.1,0.1-0.1,0.1-0.2v-0.1c0.1-0.1,0.1-0.1,0.1-0.1s0.1-0.1,0.1-0.1c0.1-0.1,0.2-0.3,0.4-0.4
		s0.2-0.3,0.3-0.4c0.1-0.1,0.1-0.1,0.1-0.1c0.1-0.1,0.1-0.1,0.1-0.1c0-0.1,0.1-0.1,0.1-0.1c0-0.1,0.1-0.1,0.1-0.1L13-49.1L13-49.1
		L13-49.1z"/>
	<path id="XMLID_89_" class="st2" d="M17-52.4C17-52.4,17-52.3,17-52.4c-0.1,0.1-0.1,0.1-0.1,0.1c-0.1,0.1-0.2,0.1-0.3,0.2
		c-0.1,0.1-0.3,0.1-0.4,0.3c-0.1,0.1-0.3,0.1-0.4,0.3c-0.1,0.1-0.3,0.2-0.4,0.4c-0.1,0-0.1,0.1-0.2,0.1c0,0-0.1,0-0.1,0.1
		c-0.1,0-0.1,0.1-0.1,0.1c-0.2,0.1-0.4,0.3-0.4,0.3c-0.1,0.1-0.1,0.1-0.1,0c-0.7-0.7-0.7-0.7-0.7-0.7c-0.1-0.1-0.1-0.1,0-0.1
		c0,0,0.1-0.1,0.4-0.3c0.1-0.1,0.1-0.1,0.1-0.1c0,0,0,0,0.1-0.1c0.1,0,0.1-0.1,0.2-0.1c0.1-0.1,0.3-0.2,0.4-0.4
		c0.2-0.1,0.4-0.2,0.5-0.4c0.1-0.1,0.4-0.1,0.4-0.3c0.1-0.1,0.3-0.1,0.4-0.1c0.1-0.1,0.1-0.1,0.1-0.1c0.1-0.1,0.1,0,0.1,0L17-52.4
		L17-52.4L17-52.4z"/>
	<path id="XMLID_88_" class="st1" d="M14-50.2c0.1,0.1,0.1,0.1,0.1,0.1c0,0-0.1,0-0.1,0.1c0,0.1-0.1,0.1-0.2,0.2
		c-0.1,0.1-0.3,0.3-0.3,0.3s0,0-0.1-0.1c-0.7-0.7-0.7-0.7-0.7-0.7v-0.1c0,0,0.1-0.1,0.3-0.3c0.1-0.1,0.1-0.2,0.2-0.3
		c0.1,0,0.1-0.1,0.1-0.1s0,0,0.1,0.1L14-50.2L14-50.2L14-50.2z"/>
	<path id="XMLID_87_" class="st2" d="M39.4-44L39.4-44c-0.1-0.1-0.1-0.1-0.1-0.2c0-0.1-0.1-0.1-0.1-0.3c-0.1-0.1-0.1-0.1-0.1-0.2
		c0-0.1,0-0.1,0-0.1c0,0,0,0-0.1-0.1c0,0,0,0,0-0.1c-0.1-0.1-0.1-0.3-0.2-0.5l-0.1-0.1c0-0.1,0-0.1-0.1-0.1c0-0.1-0.1-0.1-0.1-0.2
		c-0.1-0.2-0.2-0.4-0.3-0.4c-0.1-0.3-0.2-0.4-0.2-0.4c0-0.1,0-0.1,0.1-0.1c0.8-0.5,0.8-0.5,0.8-0.5c0.1,0,0.1,0,0.1,0.1
		c0,0,0.1,0.1,0.2,0.4c0.1,0.1,0.2,0.3,0.3,0.4c0,0.1,0.1,0.2,0.1,0.3c0,0,0,0.1,0.1,0.1c0,0,0,0.1,0,0.1c0.1,0.1,0.2,0.4,0.3,0.5
		v0.1c0,0,0,0.1,0.1,0.1c0,0.1,0,0.1,0,0.1c0.1,0.1,0.1,0.1,0.1,0.2c0,0.1,0.1,0.2,0.1,0.4c0.1,0.1,0.1,0.1,0.1,0.1
		c0,0.1,0,0.1-0.1,0.1L39.4-44L39.4-44L39.4-44z"/>
	<path id="XMLID_86_" class="st2" d="M40.2-39L40.2-39c-0.1-0.1-0.1-0.3-0.1-0.6c0-0.1,0-0.1,0-0.2s0-0.1,0-0.3
		c-0.1-0.1-0.1-0.4-0.1-0.5C40-40.9,40-41.3,40-41.6c0-0.1-0.1-0.2-0.1-0.3c0-0.1,0-0.1,0-0.1l0,0c0-0.1,0-0.1,0.1-0.1
		c0.9-0.2,0.9-0.2,0.9-0.2c0.1,0,0.1,0,0.1,0.1H41c0,0.1,0,0.1,0,0.1c0,0.1,0,0.2,0.1,0.4c0.1,0.3,0.1,0.6,0.1,1.1
		c0,0.2,0,0.4,0.1,0.6c0,0.1,0,0.2,0,0.3c0,0.1,0,0.1,0,0.2c0,0.4,0,0.6,0,0.6s0,0.1-0.1,0.1H40.2L40.2-39L40.2-39z"/>
	<path id="XMLID_85_" class="st2" d="M39.8-42.6L39.8-42.6c-0.1,0-0.1-0.1-0.1-0.1c-0.1-0.1-0.1-0.1-0.1-0.3
		c-0.1-0.1-0.2-0.4-0.2-0.4s0-0.1,0.1-0.1c1-0.3,1-0.3,1-0.3c0.1,0,0.1,0,0.1,0s0.1,0.2,0.2,0.4c0,0.1,0.1,0.2,0.1,0.3
		c0,0.1,0.1,0.1,0.1,0.1c0,0.1-0.1,0.1-0.2,0.1L39.8-42.6L39.8-42.6L39.8-42.6z"/>
</g>
<g id="XMLID_66_">
	<path id="XMLID_83_" class="st1" d="M98.6-39c0,3.2-1,6.2-2.9,8.7C95-30.9,95-30.9,95-30.9c1.7-2.2,2.7-5.1,2.7-8.1
		c0-5.5-3.3-10.3-8.1-12.5c0.2-0.9,0.2-0.9,0.2-0.9c1.7,0.7,3.2,1.7,4.5,3C97.1-46.5,98.6-42.8,98.6-39L98.6-39z"/>
	<path id="XMLID_82_" class="st1" d="M75.6-28.3c-0.5,0.8-0.5,0.8-0.5,0.8c-0.4-0.4-0.9-0.7-1.3-1.2c-2.4-2.5-3.9-5.6-4.2-9
		c0.9-0.3,0.9-0.3,0.9-0.3C70.7-34,72.7-30.6,75.6-28.3L75.6-28.3z"/>
	<path id="XMLID_79_" class="st2" d="M84.1-26c-7.1,0-12.9-5.8-12.9-13c0-7.1,5.8-13,12.9-13c7.2,0,13,5.9,13,13
		C97-31.8,91.2-26,84.1-26L84.1-26z M84.1-51.6c-7,0-12.6,5.7-12.6,12.7s5.7,12.7,12.6,12.7c7,0,12.7-5.7,12.7-12.7
		S91.1-51.6,84.1-51.6L84.1-51.6z"/>
	<path id="XMLID_76_" class="st2" d="M84.1-22.7c-8.9,0-16.2-7.3-16.2-16.2s7.3-16.2,16.2-16.2c9,0,16.2,7.3,16.2,16.2
		S93.1-22.7,84.1-22.7L84.1-22.7z M84.1-54.8c-8.8,0-15.9,7.1-15.9,15.9s7.1,16,15.9,16s16-7.2,16-16S92.8-54.8,84.1-54.8L84.1-54.8
		z"/>
	<path id="XMLID_75_" class="st2" d="M81.2-23.7c0-0.1,0.1-0.1,0.1-0.1c0,0,0.1,0,0.4,0.1c0.1,0,0.3,0,0.5,0.1c0.1,0,0.1,0,0.2,0
		c0.1,0,0.2,0,0.3,0c0.1,0,0.2,0.1,0.3,0.1s0.1,0,0.1,0c0.1,0,0.1,0,0.1,0c0.2,0,0.4,0,0.5,0s0.2,0,0.4,0c0.1,0,0.1,0,0.1,0
		c0.1,0,0.1,0.1,0.1,0.1c0,1,0,1,0,1l-0.1,0.1c0,0-0.1,0-0.1,0c-0.1,0-0.2,0-0.4,0c-0.2,0-0.4,0-0.6,0c0,0-0.1,0-0.1,0
		c0,0-0.1,0-0.1,0c-0.1-0.1-0.2-0.1-0.3-0.1s-0.2,0-0.3,0s-0.2,0-0.3-0.1c-0.2,0-0.4,0-0.5,0c-0.1-0.1-0.3-0.1-0.4-0.1
		c-0.1-0.1-0.1-0.1-0.1-0.1c-0.1,0-0.1,0-0.1-0.1L81.2-23.7L81.2-23.7L81.2-23.7z"/>
	<path id="XMLID_74_" class="st2" d="M76.3-25.5c0.1-0.1,0.1-0.1,0.1-0.1c0,0,0.1,0.1,0.1,0.1c0,0.1,0.1,0.1,0.1,0.1
		c0.1,0.1,0.1,0.1,0.2,0.1c0.1,0,0.3,0.1,0.4,0.2c0.1,0,0.1,0.1,0.2,0.1c0.1,0.1,0.2,0.1,0.3,0.1c0.1,0,0.1,0.1,0.2,0.1
		c0.1,0.1,0.2,0.1,0.3,0.1c0.1,0.1,0.3,0.1,0.4,0.1c0.3,0.1,0.4,0.1,0.4,0.1c0.1,0.1,0.1,0.1,0.1,0.1C79-23.2,79-23.2,79-23.2
		s-0.1,0.1-0.1,0.1c0,0-0.1-0.1-0.4-0.2c-0.1,0-0.4-0.1-0.5-0.1c-0.1-0.1-0.2-0.1-0.3-0.1c-0.1,0-0.1-0.1-0.3-0.1
		c-0.1,0-0.1-0.1-0.3-0.1C77-24,76.9-24,76.8-24c-0.2-0.1-0.4-0.1-0.5-0.2c-0.1-0.1-0.1-0.1-0.1-0.1c-0.1,0-0.1,0-0.1-0.1
		c-0.1,0-0.1-0.1-0.1-0.1s-0.1-0.1,0-0.1L76.3-25.5L76.3-25.5L76.3-25.5z"/>
	<path id="XMLID_73_" class="st2" d="M79.7-24C79.7-24.1,79.8-24.1,79.7-24c0.1-0.1,0.3,0,0.5,0c0.1,0.1,0.2,0.1,0.3,0.1
		c0.1,0.1,0.1,0.1,0.1,0.1c0.1,0,0.1,0,0,0.1c-0.2,0.9-0.2,0.9-0.2,0.9c0,0.1,0,0.1,0,0.1s-0.1,0-0.1,0S80-22.9,80-22.9
		c-0.2-0.1-0.5-0.1-0.5-0.1v-0.1L79.7-24L79.7-24L79.7-24z"/>
	<path id="XMLID_72_" class="st2" d="M72.4-49.1c0.1,0.1,0.1,0.1,0,0.1c0,0,0,0.1-0.1,0.1c0,0.1-0.1,0.1-0.1,0.1
		c-0.1,0.1-0.1,0.1-0.1,0.1c-0.1,0.1-0.2,0.2-0.3,0.4c-0.1,0.1-0.2,0.4-0.4,0.5c0,0,0,0.1-0.1,0.1c0,0.1,0,0.1,0,0.1
		c-0.1,0.1-0.1,0.1-0.1,0.1c-0.1,0.1-0.1,0.1-0.1,0.2C71-47.2,71-47.2,71-47.1c0,0.1-0.1,0.1-0.1,0.2c-0.1,0.2-0.2,0.4-0.2,0.4
		c0,0.1-0.1,0.1-0.1,0.1c-0.9-0.5-0.9-0.5-0.9-0.5c-0.1,0-0.1-0.1-0.1-0.1s0.1-0.2,0.3-0.5c0,0,0.1-0.1,0.1-0.1
		c0-0.1,0.1-0.2,0.1-0.3c0-0.1,0.1-0.1,0.1-0.2v-0.1c0.1-0.1,0.1-0.1,0.1-0.1s0.1-0.1,0.1-0.1c0.1-0.1,0.2-0.3,0.4-0.4
		s0.2-0.3,0.3-0.4c0.1-0.1,0.1-0.1,0.1-0.1c0.1-0.1,0.1-0.1,0.1-0.1c0-0.1,0.1-0.1,0.1-0.1c0-0.1,0.1-0.1,0.1-0.1L72.4-49.1
		L72.4-49.1L72.4-49.1z"/>
	<path id="XMLID_71_" class="st2" d="M76.3-52.4C76.3-52.4,76.3-52.3,76.3-52.4c-0.1,0.1-0.1,0.1-0.1,0.1c-0.1,0.1-0.2,0.1-0.3,0.2
		c-0.1,0.1-0.3,0.1-0.4,0.3c-0.1,0.1-0.3,0.1-0.4,0.3c-0.1,0.1-0.3,0.2-0.4,0.4c-0.1,0-0.1,0.1-0.2,0.1c0,0-0.1,0-0.1,0.1
		c-0.1,0-0.1,0.1-0.1,0.1c-0.2,0.1-0.4,0.3-0.4,0.3c-0.1,0.1-0.1,0.1-0.1,0c-0.7-0.7-0.7-0.7-0.7-0.7c-0.1-0.1-0.1-0.1,0-0.1
		c0,0,0.1-0.1,0.4-0.3c0.1-0.1,0.1-0.1,0.1-0.1c0,0,0,0,0.1-0.1c0.1,0,0.1-0.1,0.2-0.1c0.1-0.1,0.3-0.2,0.4-0.4
		c0.2-0.1,0.4-0.2,0.5-0.4c0.1-0.1,0.4-0.1,0.4-0.3c0.1-0.1,0.3-0.1,0.4-0.1c0.1-0.1,0.1-0.1,0.1-0.1c0.1-0.1,0.1,0,0.1,0L76.3-52.4
		L76.3-52.4L76.3-52.4z"/>
	<path id="XMLID_70_" class="st1" d="M73.3-50.2c0.1,0.1,0.1,0.1,0.1,0.1c0,0-0.1,0-0.1,0.1c0,0.1-0.1,0.1-0.2,0.2
		c-0.1,0.1-0.3,0.3-0.3,0.3s0,0-0.1-0.1C72-50.2,72-50.2,72-50.2v-0.1c0,0,0.1-0.1,0.3-0.3c0.1-0.1,0.1-0.2,0.2-0.3
		c0.1,0,0.1-0.1,0.1-0.1s0,0,0.1,0.1L73.3-50.2L73.3-50.2L73.3-50.2z"/>
	<path id="XMLID_69_" class="st2" d="M98.7-44L98.7-44c-0.1-0.1-0.1-0.1-0.1-0.2c0-0.1-0.1-0.1-0.1-0.3c-0.1-0.1-0.1-0.1-0.1-0.2
		c0-0.1,0-0.1,0-0.1c0,0,0,0-0.1-0.1c0,0,0,0,0-0.1c-0.1-0.1-0.1-0.3-0.2-0.5L98-45.6c0-0.1,0-0.1-0.1-0.1c0-0.1-0.1-0.1-0.1-0.2
		c-0.1-0.2-0.2-0.4-0.3-0.4c-0.1-0.3-0.2-0.4-0.2-0.4c0-0.1,0-0.1,0.1-0.1c0.8-0.5,0.8-0.5,0.8-0.5c0.1,0,0.1,0,0.1,0.1
		c0,0,0.1,0.1,0.2,0.4c0.1,0.1,0.2,0.3,0.3,0.4c0,0.1,0.1,0.2,0.1,0.3c0,0,0,0.1,0.1,0.1c0,0,0,0.1,0,0.1c0.1,0.1,0.2,0.4,0.3,0.5
		v0.1c0,0,0,0.1,0.1,0.1c0,0.1,0,0.1,0,0.1c0.1,0.1,0.1,0.1,0.1,0.2c0,0.1,0.1,0.2,0.1,0.4c0.1,0.1,0.1,0.1,0.1,0.1
		c0,0.1,0,0.1-0.1,0.1L98.7-44L98.7-44L98.7-44z"/>
	<path id="XMLID_68_" class="st2" d="M99.6-39L99.6-39c-0.1-0.1-0.1-0.3-0.1-0.6c0-0.1,0-0.1,0-0.2s0-0.1,0-0.3
		c-0.1-0.1-0.1-0.4-0.1-0.5c-0.1-0.4-0.1-0.8-0.1-1.1c0-0.1-0.1-0.2-0.1-0.3c0-0.1,0-0.1,0-0.1l0,0c0-0.1,0-0.1,0.1-0.1
		c0.9-0.2,0.9-0.2,0.9-0.2c0.1,0,0.1,0,0.1,0.1h0.1c0,0.1,0,0.1,0,0.1c0,0.1,0,0.2,0.1,0.4c0.1,0.3,0.1,0.6,0.1,1.1
		c0,0.2,0,0.4,0.1,0.6c0,0.1,0,0.2,0,0.3c0,0.1,0,0.1,0,0.2c0,0.4,0,0.6,0,0.6s0,0.1-0.1,0.1H99.6L99.6-39L99.6-39z"/>
	<path id="XMLID_67_" class="st2" d="M99.1-42.6L99.1-42.6c-0.1,0-0.1-0.1-0.1-0.1C99-42.9,99-42.9,99-43.1
		c-0.1-0.1-0.2-0.4-0.2-0.4s0-0.1,0.1-0.1c1-0.3,1-0.3,1-0.3c0.1,0,0.1,0,0.1,0s0.1,0.2,0.2,0.4c0,0.1,0.1,0.2,0.1,0.3
		c0,0.1,0.1,0.1,0.1,0.1c0,0.1-0.1,0.1-0.2,0.1L99.1-42.6L99.1-42.6L99.1-42.6z"/>
</g>
<g id="XMLID_48_">
	<path id="XMLID_65_" class="st1" d="M158-39c0,3.2-1,6.2-2.9,8.7c-0.7-0.6-0.7-0.6-0.7-0.6c1.7-2.2,2.7-5.1,2.7-8.1
		c0-5.5-3.3-10.3-8.1-12.5c0.2-0.9,0.2-0.9,0.2-0.9c1.7,0.7,3.2,1.7,4.5,3C156.5-46.5,158-42.8,158-39L158-39z"/>
	<path id="XMLID_64_" class="st1" d="M135-28.3c-0.5,0.8-0.5,0.8-0.5,0.8c-0.4-0.4-0.9-0.7-1.3-1.2c-2.4-2.5-3.9-5.6-4.2-9
		c0.9-0.3,0.9-0.3,0.9-0.3C130.1-34,132.1-30.6,135-28.3L135-28.3z"/>
	<path id="XMLID_61_" class="st2" d="M143.4-26c-7.1,0-12.9-5.8-12.9-13c0-7.1,5.8-13,12.9-13c7.2,0,13,5.9,13,13
		C156.4-31.8,150.6-26,143.4-26L143.4-26z M143.4-51.6c-7,0-12.6,5.7-12.6,12.7s5.7,12.7,12.6,12.7c7,0,12.7-5.7,12.7-12.7
		S150.5-51.6,143.4-51.6L143.4-51.6z"/>
	<path id="XMLID_58_" class="st2" d="M143.4-22.7c-8.9,0-16.2-7.3-16.2-16.2s7.3-16.2,16.2-16.2c9,0,16.2,7.3,16.2,16.2
		S152.4-22.7,143.4-22.7L143.4-22.7z M143.4-54.8c-8.8,0-15.9,7.1-15.9,15.9s7.1,16,15.9,16s16-7.2,16-16S152.2-54.8,143.4-54.8
		L143.4-54.8z"/>
	<path id="XMLID_57_" class="st2" d="M140.5-23.7c0-0.1,0.1-0.1,0.1-0.1c0,0,0.1,0,0.4,0.1c0.1,0,0.3,0,0.5,0.1c0.1,0,0.1,0,0.2,0
		c0.1,0,0.2,0,0.3,0c0.1,0,0.2,0.1,0.3,0.1s0.1,0,0.1,0c0.1,0,0.1,0,0.1,0c0.2,0,0.4,0,0.5,0s0.2,0,0.4,0c0.1,0,0.1,0,0.1,0
		c0.1,0,0.1,0.1,0.1,0.1c0,1,0,1,0,1l-0.1,0.1c0,0-0.1,0-0.1,0c-0.1,0-0.2,0-0.4,0c-0.2,0-0.4,0-0.6,0c0,0-0.1,0-0.1,0
		c0,0-0.1,0-0.1,0c-0.1-0.1-0.2-0.1-0.3-0.1s-0.2,0-0.3,0s-0.2,0-0.3-0.1c-0.2,0-0.4,0-0.5,0c-0.1-0.1-0.3-0.1-0.4-0.1
		c-0.1-0.1-0.1-0.1-0.1-0.1c-0.1,0-0.1,0-0.1-0.1L140.5-23.7L140.5-23.7L140.5-23.7z"/>
	<path id="XMLID_56_" class="st2" d="M135.7-25.5c0.1-0.1,0.1-0.1,0.1-0.1c0,0,0.1,0.1,0.1,0.1c0,0.1,0.1,0.1,0.1,0.1
		c0.1,0.1,0.1,0.1,0.2,0.1c0.1,0,0.3,0.1,0.4,0.2c0.1,0,0.1,0.1,0.2,0.1c0.1,0.1,0.2,0.1,0.3,0.1c0.1,0,0.1,0.1,0.2,0.1
		c0.1,0.1,0.2,0.1,0.3,0.1c0.1,0.1,0.3,0.1,0.4,0.1c0.3,0.1,0.4,0.1,0.4,0.1c0.1,0.1,0.1,0.1,0.1,0.1c-0.3,0.9-0.3,0.9-0.3,0.9
		s-0.1,0.1-0.1,0.1c0,0-0.1-0.1-0.4-0.2c-0.1,0-0.4-0.1-0.5-0.1c-0.1-0.1-0.2-0.1-0.3-0.1c-0.1,0-0.1-0.1-0.3-0.1
		c-0.1,0-0.1-0.1-0.3-0.1c-0.1-0.1-0.1-0.1-0.2-0.1c-0.2-0.1-0.4-0.1-0.5-0.2c-0.1-0.1-0.1-0.1-0.1-0.1c-0.1,0-0.1,0-0.1-0.1
		c-0.1,0-0.1-0.1-0.1-0.1s-0.1-0.1,0-0.1L135.7-25.5L135.7-25.5L135.7-25.5z"/>
	<path id="XMLID_55_" class="st2" d="M139.1-24C139.1-24.1,139.2-24.1,139.1-24c0.1-0.1,0.3,0,0.5,0c0.1,0.1,0.2,0.1,0.3,0.1
		c0.1,0.1,0.1,0.1,0.1,0.1c0.1,0,0.1,0,0,0.1c-0.2,0.9-0.2,0.9-0.2,0.9c0,0.1,0,0.1,0,0.1s-0.1,0-0.1,0s-0.2-0.1-0.3-0.1
		c-0.2-0.1-0.5-0.1-0.5-0.1v-0.1L139.1-24L139.1-24L139.1-24z"/>
	<path id="XMLID_54_" class="st2" d="M131.7-49.1c0.1,0.1,0.1,0.1,0,0.1c0,0,0,0.1-0.1,0.1c0,0.1-0.1,0.1-0.1,0.1
		c-0.1,0.1-0.1,0.1-0.1,0.1c-0.1,0.1-0.2,0.2-0.3,0.4c-0.1,0.1-0.2,0.4-0.4,0.5c0,0,0,0.1-0.1,0.1c0,0.1,0,0.1,0,0.1
		c-0.1,0.1-0.1,0.1-0.1,0.1c-0.1,0.1-0.1,0.1-0.1,0.2c-0.1,0.1-0.1,0.1-0.1,0.2c0,0.1-0.1,0.1-0.1,0.2c-0.1,0.2-0.2,0.4-0.2,0.4
		c0,0.1-0.1,0.1-0.1,0.1c-0.9-0.5-0.9-0.5-0.9-0.5c-0.1,0-0.1-0.1-0.1-0.1s0.1-0.2,0.3-0.5c0,0,0.1-0.1,0.1-0.1
		c0-0.1,0.1-0.2,0.1-0.3c0-0.1,0.1-0.1,0.1-0.2v-0.1c0.1-0.1,0.1-0.1,0.1-0.1s0.1-0.1,0.1-0.1c0.1-0.1,0.2-0.3,0.4-0.4
		c0.1-0.1,0.2-0.3,0.3-0.4c0.1-0.1,0.1-0.1,0.1-0.1c0.1-0.1,0.1-0.1,0.1-0.1c0-0.1,0.1-0.1,0.1-0.1c0-0.1,0.1-0.1,0.1-0.1
		L131.7-49.1L131.7-49.1L131.7-49.1z"/>
	<path id="XMLID_53_" class="st2" d="M135.7-52.4C135.7-52.4,135.7-52.3,135.7-52.4c-0.1,0.1-0.1,0.1-0.1,0.1
		c-0.1,0.1-0.2,0.1-0.3,0.2c-0.1,0.1-0.3,0.1-0.4,0.3c-0.1,0.1-0.3,0.1-0.4,0.3c-0.1,0.1-0.3,0.2-0.4,0.4c-0.1,0-0.1,0.1-0.2,0.1
		c0,0-0.1,0-0.1,0.1c-0.1,0-0.1,0.1-0.1,0.1c-0.2,0.1-0.4,0.3-0.4,0.3c-0.1,0.1-0.1,0.1-0.1,0c-0.7-0.7-0.7-0.7-0.7-0.7
		c-0.1-0.1-0.1-0.1,0-0.1c0,0,0.1-0.1,0.4-0.3c0.1-0.1,0.1-0.1,0.1-0.1c0,0,0,0,0.1-0.1c0.1,0,0.1-0.1,0.2-0.1
		c0.1-0.1,0.3-0.2,0.4-0.4c0.2-0.1,0.4-0.2,0.5-0.4c0.1-0.1,0.4-0.1,0.4-0.3c0.1-0.1,0.3-0.1,0.4-0.1c0.1-0.1,0.1-0.1,0.1-0.1
		c0.1-0.1,0.1,0,0.1,0L135.7-52.4L135.7-52.4L135.7-52.4z"/>
	<path id="XMLID_52_" class="st1" d="M132.7-50.2c0.1,0.1,0.1,0.1,0.1,0.1c0,0-0.1,0-0.1,0.1c0,0.1-0.1,0.1-0.2,0.2
		c-0.1,0.1-0.3,0.3-0.3,0.3s0,0-0.1-0.1c-0.7-0.7-0.7-0.7-0.7-0.7v-0.1c0,0,0.1-0.1,0.3-0.3c0.1-0.1,0.1-0.2,0.2-0.3
		c0.1,0,0.1-0.1,0.1-0.1s0,0,0.1,0.1L132.7-50.2L132.7-50.2L132.7-50.2z"/>
	<path id="XMLID_51_" class="st2" d="M158.1-44L158.1-44c-0.1-0.1-0.1-0.1-0.1-0.2c0-0.1-0.1-0.1-0.1-0.3c-0.1-0.1-0.1-0.1-0.1-0.2
		c0-0.1,0-0.1,0-0.1c0,0,0,0-0.1-0.1c0,0,0,0,0-0.1c-0.1-0.1-0.1-0.3-0.2-0.5l-0.1-0.1c0-0.1,0-0.1-0.1-0.1c0-0.1-0.1-0.1-0.1-0.2
		c-0.1-0.2-0.2-0.4-0.3-0.4c-0.1-0.3-0.2-0.4-0.2-0.4c0-0.1,0-0.1,0.1-0.1c0.8-0.5,0.8-0.5,0.8-0.5c0.1,0,0.1,0,0.1,0.1
		c0,0,0.1,0.1,0.2,0.4c0.1,0.1,0.2,0.3,0.3,0.4c0,0.1,0.1,0.2,0.1,0.3c0,0,0,0.1,0.1,0.1c0,0,0,0.1,0,0.1c0.1,0.1,0.2,0.4,0.3,0.5
		v0.1c0,0,0,0.1,0.1,0.1c0,0.1,0,0.1,0,0.1c0.1,0.1,0.1,0.1,0.1,0.2c0,0.1,0.1,0.2,0.1,0.4c0.1,0.1,0.1,0.1,0.1,0.1
		c0,0.1,0,0.1-0.1,0.1L158.1-44L158.1-44L158.1-44z"/>
	<path id="XMLID_50_" class="st2" d="M159-39L159-39c-0.1-0.1-0.1-0.3-0.1-0.6c0-0.1,0-0.1,0-0.2s0-0.1,0-0.3
		c-0.1-0.1-0.1-0.4-0.1-0.5c-0.1-0.4-0.1-0.8-0.1-1.1c0-0.1-0.1-0.2-0.1-0.3c0-0.1,0-0.1,0-0.1l0,0c0-0.1,0-0.1,0.1-0.1
		c0.9-0.2,0.9-0.2,0.9-0.2c0.1,0,0.1,0,0.1,0.1h0.1c0,0.1,0,0.1,0,0.1c0,0.1,0,0.2,0.1,0.4c0.1,0.3,0.1,0.6,0.1,1.1
		c0,0.2,0,0.4,0.1,0.6c0,0.1,0,0.2,0,0.3c0,0.1,0,0.1,0,0.2c0,0.4,0,0.6,0,0.6s0,0.1-0.1,0.1H159L159-39L159-39z"/>
	<path id="XMLID_49_" class="st2" d="M158.5-42.6L158.5-42.6c-0.1,0-0.1-0.1-0.1-0.1c-0.1-0.1-0.1-0.1-0.1-0.3
		c-0.1-0.1-0.2-0.4-0.2-0.4s0-0.1,0.1-0.1c1-0.3,1-0.3,1-0.3c0.1,0,0.1,0,0.1,0s0.1,0.2,0.2,0.4c0,0.1,0.1,0.2,0.1,0.3
		c0,0.1,0.1,0.1,0.1,0.1c0,0.1-0.1,0.1-0.2,0.1L158.5-42.6L158.5-42.6L158.5-42.6z"/>
</g>
<path id="XMLID_47_" class="st0" d="M-39.4-34.2c1.1,0.7,2.5,1.2,4,1.2c4.8,0,7.5-4,7.3-7.7c0.5-0.4,0.9-0.8,1.3-1.3
	c-0.5,0.2-1,0.3-1.5,0.4c0.5-0.3,0.9-0.8,1.1-1.4c-0.5,0.3-1.1,0.5-1.6,0.6c-0.5-0.5-1.1-0.8-1.9-0.8c-1.7,0-2.9,1.6-2.5,3.2
	c-2.1-0.1-4-1.1-5.3-2.7c-0.7,1.2-0.4,2.7,0.8,3.4c-0.4,0-0.8-0.1-1.2-0.3c0,1.2,0.8,2.3,2.1,2.6c-0.4,0.1-0.8,0.1-1.2,0
	c0.3,1,1.3,1.8,2.4,1.8C-36.7-34.5-38-34.1-39.4-34.2z"/>
<path id="XMLID_46_" class="st0" d="M148.4-44.3c-1.9-0.1-3.1,1-3.8,3.1c0.3-0.1,0.7-0.2,1-0.2c0.7,0,1,0.4,0.9,1.1
	c0,0.5-0.3,1.1-0.9,2c-0.6,0.9-1,1.3-1.3,1.3c-0.4,0-0.7-0.7-1-2c-0.1-0.4-0.3-1.4-0.5-3.1c-0.2-1.5-0.9-2.2-1.9-2.1
	c-0.4,0-1.1,0.4-2,1.2c-0.6,0.6-1.3,1.2-2,1.7l0.6,0.8c0.6-0.4,1-0.6,1-0.6c0.5,0,0.9,0.7,1.3,2.2c0.4,1.3,0.7,2.6,1.1,4
	c0.5,1.4,1.2,2.2,2,2.2c1.3,0,2.8-1.2,4.6-3.5c1.8-2.3,2.7-4,2.7-5.4C150.5-43.4,149.8-44.3,148.4-44.3z"/>
<g id="XMLID_30_">
	<g id="XMLID_40_">
		<path id="XMLID_45_" class="st0" d="M26.9-40.5c0.2,0,0.5-0.1,0.9-0.5v0.4h0.7v-4h-0.7v3c-0.1,0.1-0.3,0.3-0.4,0.3
			c-0.2,0-0.2-0.1-0.2-0.3v-3.1h-0.7v3.4C26.4-40.8,26.5-40.5,26.9-40.5z"/>
		<path id="XMLID_42_" class="st0" d="M23.6-41.5c0,0.7,0.4,1.1,1.1,1.1c0.6,0,1.1-0.4,1.1-1.1v-2c0-0.6-0.5-1.1-1.1-1.1
			c-0.7,0-1.1,0.4-1.1,1.1V-41.5z M24.4-43.4c0-0.2,0.1-0.4,0.3-0.4c0.2,0,0.3,0.2,0.3,0.4v1.9c0,0.2-0.1,0.4-0.3,0.4
			c-0.2,0-0.3-0.2-0.3-0.4V-43.4z"/>
		<polygon id="XMLID_41_" class="st0" points="21.8,-40.5 22.7,-40.5 22.7,-42.7 23.6,-46 22.8,-46 22.2,-43.8 21.7,-46 20.8,-46 
			21.8,-42.7 		"/>
	</g>
	<g id="XMLID_31_">
		<path id="XMLID_34_" class="st0" d="M29.5-39.6h-8.8c-0.9,0-1.7,0.8-1.7,1.7v4.3c0,0.9,0.8,1.7,1.7,1.7h8.8c0.9,0,1.7-0.8,1.7-1.7
			v-4.3C31.2-38.8,30.5-39.6,29.5-39.6z M21.9-33.2h-0.8v-4.4h-0.8v-0.8h2.5v0.8h-0.8V-33.2z M24.8-33.2H24v-0.4
			c-0.1,0.2-0.3,0.3-0.4,0.4c-0.4,0.2-0.9,0.2-0.9-0.6V-37h0.7v2.9c0,0.2,0,0.3,0.2,0.3c0.1,0,0.3-0.2,0.4-0.3V-37h0.7V-33.2z
			 M27.5-33.9c0,0.5-0.2,0.8-0.6,0.8c-0.3,0-0.5-0.1-0.7-0.3v0.3h-0.7v-5.2h0.7v1.7c0.2-0.2,0.4-0.4,0.6-0.4c0.5,0,0.7,0.4,0.7,1
			V-33.9z M30.1-35h-1.4v0.7c0,0.3,0,0.5,0.3,0.5c0.3,0,0.3-0.2,0.3-0.5v-0.3h0.7v0.3c0,0.7-0.3,1.2-1.1,1.2c-0.7,0-1-0.5-1-1.2
			v-1.7c0-0.7,0.4-1.1,1.1-1.1c0.7,0,1,0.4,1,1.1V-35z"/>
		<path id="XMLID_33_" class="st0" d="M29.1-36.4c-0.3,0-0.3,0.2-0.3,0.4v0.4h0.6V-36C29.4-36.2,29.3-36.4,29.1-36.4z"/>
		<path id="XMLID_32_" class="st0" d="M26.3-36.4c-0.1,0-0.1,0.1-0.1,0.1v2.4c0.1,0.1,0.1,0.1,0.2,0.1c0.1,0.1,0.3,0.1,0.4,0
			c0-0.1,0.1-0.1,0.1-0.3v-2c0-0.1,0-0.2-0.1-0.3C26.6-36.4,26.4-36.4,26.3-36.4z"/>
	</g>
</g>
<path id="XMLID_165_" class="st0" d="M-167,65h8V44.8h5.6l0.6-6.7h-6.2c0,0,0-2.5,0-3.8c0-1.6,0.3-2.2,1.9-2.2c1.2,0,4.4,0,4.4,0v-7
	c0,0-4.6,0-5.6,0c-6,0-8.7,2.6-8.7,7.7c0,4.4,0,5.4,0,5.4h-4.2v6.8h4.2V65z"/>
<g id="XMLID_160_">
	<g id="XMLID_162_">
		<rect id="XMLID_164_" x="276.7" y="121.6" class="st0" width="6.8" height="22.1"/>
		<ellipse id="XMLID_163_" class="st0" cx="280.1" cy="114.6" rx="4" ry="4.1"/>
	</g>
	<path id="XMLID_161_" class="st0" d="M294.5,132.1c0-3.1,1.4-5,4.2-5c2.5,0,3.7,1.8,3.7,5c0,3.2,0,11.6,0,11.6h6.8c0,0,0-8.1,0-14
		c0-5.9-3.4-8.8-8-8.8c-4.7,0-6.7,3.7-6.7,3.7v-3h-6.6v22.1h6.6C294.5,143.7,294.5,135.5,294.5,132.1z"/>
</g>
<path id="XMLID_159_" class="st0" d="M7.4,36.1c3.2,2.1,7,3.2,11.1,3.2c13.4,0,21-11.3,20.5-21.5c1.4-1,2.6-2.3,3.6-3.7
	c-1.3,0.6-2.7,1-4.2,1.1c1.5-0.9,2.6-2.3,3.2-4c-1.4,0.8-2.9,1.4-4.6,1.8c-1.3-1.4-3.2-2.3-5.3-2.3c-4.7,0-8.1,4.4-7,8.9
	c-6-0.3-11.3-3.2-14.9-7.6c-1.9,3.3-1,7.5,2.2,9.7c-1.2,0-2.3-0.4-3.3-0.9c-0.1,3.3,2.3,6.5,5.8,7.2c-1,0.3-2.1,0.3-3.3,0.1
	c0.9,2.9,3.6,5,6.8,5C15,35.5,11.2,36.5,7.4,36.1z"/>
<path id="XMLID_158_" class="st0" d="M471.9,114c-5.2-0.2-8.7,2.8-10.6,8.8c1-0.4,1.9-0.6,2.8-0.6c1.9,0,2.7,1.1,2.5,3.2
	c-0.1,1.3-1,3.2-2.5,5.7c-1.6,2.5-2.8,3.7-3.5,3.7c-1,0-1.9-1.9-2.8-5.7c-0.3-1.1-0.8-4-1.5-8.6c-0.7-4.3-2.5-6.3-5.4-6
	c-1.2,0.1-3.1,1.2-5.6,3.4c-1.8,1.6-3.6,3.3-5.5,4.9l1.8,2.3c1.7-1.2,2.7-1.8,2.9-1.8c1.3,0,2.5,2,3.6,6.1c1,3.7,2,7.4,3,11.1
	c1.5,4,3.4,6.1,5.5,6.1c3.5,0,7.8-3.3,12.9-9.9c4.9-6.3,7.5-11.3,7.6-15C477.6,116.6,475.8,114.1,471.9,114z"/>
<g id="XMLID_28_">
	<g id="XMLID_152_">
		<path id="XMLID_157_" class="st0" d="M131.3,124.7c0.6,0,1.5-0.3,2.4-1.4v1.2h2.1v-11.2h-2.1v8.5c-0.3,0.3-0.8,0.8-1.2,0.8
			c-0.4,0-0.6-0.3-0.6-0.8v-8.6h-2.1v9.4C129.8,123.8,130.2,124.7,131.3,124.7z"/>
		<path id="XMLID_154_" class="st0" d="M122,121.8c0,2,1,3,3.1,3c1.7,0,3-1.1,3-3v-5.5c0-1.8-1.3-3-3-3c-1.8,0-3.1,1.2-3.1,3V121.8z
			 M124.1,116.5c0-0.6,0.3-1.1,0.9-1.1c0.6,0,0.9,0.4,0.9,1.1v5.2c0,0.6-0.3,1.1-0.9,1.1c-0.6,0-0.9-0.5-0.9-1.1V116.5z"/>
		<polygon id="XMLID_153_" class="st0" points="117,124.6 119.4,124.6 119.4,118.4 122.1,109.3 119.7,109.3 118.2,115.4 
			116.6,109.3 114.2,109.3 117,118.4 		"/>
	</g>
	<g id="XMLID_29_">
		<path id="XMLID_146_" class="st0" d="M138.6,127.1H114c-2.6,0-4.8,2.1-4.8,4.8V144c0,2.6,2.1,4.8,4.8,4.8h24.6
			c2.6,0,4.8-2.1,4.8-4.8v-12.1C143.4,129.3,141.2,127.1,138.6,127.1z M117.3,145.2H115v-12.4h-2.3v-2.1h6.9v2.1h-2.3V145.2z
			 M125.2,145.2h-2v-1.2c-0.4,0.4-0.7,0.8-1.1,1c-1.1,0.6-2.5,0.6-2.5-1.6v-8.9h2v8.2c0,0.4,0.1,0.7,0.5,0.7c0.4,0,0.9-0.5,1.2-0.8
			v-8.1h2V145.2z M132.9,143c0,1.3-0.5,2.4-1.8,2.4c-0.7,0-1.3-0.3-1.9-1v0.8h-2v-14.5h2v4.7c0.4-0.5,1.1-1,1.8-1
			c1.5,0,1.9,1.2,1.9,2.7V143z M140.2,140.1h-3.8v2c0,0.8,0.1,1.5,0.9,1.5c0.8,0,0.9-0.6,0.9-1.5v-0.7h2v0.8c0,2.1-0.9,3.3-3,3.3
			c-1.9,0-2.9-1.4-2.9-3.3v-4.8c0-1.9,1.2-3.1,3-3.1c1.9,0,2.8,1.2,2.8,3.1V140.1z"/>
		<path id="XMLID_145_" class="st0" d="M137.3,136.1c-0.7,0-0.9,0.5-0.9,1.3v1.1h1.8v-1.1C138.2,136.7,138,136.1,137.3,136.1z"/>
		<path id="XMLID_144_" class="st0" d="M129.6,136.2c-0.1,0.1-0.3,0.2-0.4,0.3v6.7c0.2,0.2,0.3,0.3,0.5,0.4c0.3,0.2,0.8,0.2,1-0.1
			c0.1-0.2,0.2-0.4,0.2-0.7v-5.5c0-0.4-0.1-0.6-0.2-0.8C130.4,136.1,129.9,136,129.6,136.2z"/>
	</g>
</g>
</svg>
